<?xml version="1.0" encoding="utf-8"?>
<!-- Generator: Adobe Illustrator 13.0.0, SVG Export Plug-In . SVG Version: 6.00 Build 14948)  -->
<!DOCTYPE svg PUBLIC "-//W3C//DTD SVG 1.1//EN" "http://www.w3.org/Graphics/SVG/1.1/DTD/svg11.dtd">
<svg version="1.1" id="Calque_1" xmlns="http://www.w3.org/2000/svg" xmlns:xlink="http://www.w3.org/1999/xlink" x="0px" y="0px"
	 width="2665.367px" height="2493.793px" viewBox="0 0 2665.367 2493.793" enable-background="new 0 0 2665.367 2493.793"
	 xml:space="preserve">
<defs>
	
	
		<inkscape:perspective  id="perspective2420" inkscape:vp_y="0 : 1000 : 0" sodipodi:type="inkscape:persp3d" inkscape:vp_x="0 : 526.18109 : 1" inkscape:persp3d-origin="372.04724 : 350.78739 : 1" inkscape:vp_z="744.09448 : 526.18109 : 1">
		</inkscape:perspective>
</defs>
<sodipodi:namedview  id="base" gridtolerance="10000" inkscape:document-units="px" borderopacity="1.0" inkscape:cy="332.5412" bordercolor="#666666" inkscape:cx="792.02546" pagecolor="#ffffff" inkscape:zoom="0.35" inkscape:pageshadow="2" inkscape:pageopacity="0" showgrid="false" objecttolerance="10" inkscape:window-width="1278" showborder="true" inkscape:window-y="19" inkscape:current-layer="layer4" inkscape:window-x="0" inkscape:window-height="1003" guidetolerance="10">
	</sodipodi:namedview>
<path fill="#4D4D4D" d="M1131.017,1451.922c10.194,4.86,18.319-32.53,13.106-33.009
	C1138.786,1418.424,1120.823,1447.075,1131.017,1451.922z M1312.888,1192.319c4.483-1.776,9.276-2.403,13.796-2.403
	c7.827,0.016,18.413-1.101,23.998-0.364c-5.095-3.402-15.402-5.468-23.998-5.452c-5.028,0-10.559,0.667-15.937,2.803
	c-15.301,6.42-33.671,38.543-37.932,43.9c-2.959,4.457-20.192,17.477-25.777,19.186c6.553-0.49,24.919-8.9,30.434-15.674
	c1.459-2.067,4.814-7.301,9.051-13.413c0.037,1.514,0.534,2.922,1.292,4.195c2.484,4.17,6.812,5.326,16.998-0.741
	c10.19-6.066,19.773-21.838,18.57-23.414c-1.203-1.576-17.379,2.242-27.569,8.312c-0.534,0.318-1.035,0.635-1.516,0.95
	C1300.702,1201.88,1307.644,1194.23,1312.888,1192.319z M1401.871,1042.011l2,3.083c0,0,21.334-16.083,26.917-21.667
	c0.369-0.37,0.763-0.765,1.171-1.179c26.224,17.697,49.285,36.747,65.342,63.089c-3.206-20.875-36.759-48.622-62.547-65.966
	c5.628-5.884,12.861-14.042,16.368-20.527c1.439-2.663,3.073-5.49,4.658-8.604c0.856-1.525,1.7-3.16,2.529-4.915l-0.175-0.104
	c2.285-5.365,4.146-11.599,4.653-19.209c1-15-2.417-24.167-4.25-29.5s-8.251-18.833-14.667-25.75
	c-5.385-5.805-20.415-24.417-27.249-29.083c0,0-0.583,15.584-1.499,20s-5.751,27.333-6.418,30s-9.999,37.583-12.333,45.25
	c-1.644,5.399-6.261,18.686-9.46,27.474c-2.613-0.122-5.243-0.175-7.895-0.148c-22.304,0.23-45.718,5.713-66.525,13.46
	c-5.988,2.23-11.757,4.644-17.224,7.177l-32.814-27.212c-23.116-21.692-15.625-14.438-24.125-23.625
	c-2.422-2.618-10.875-12.875-16.042-22.042s-8.167-15.5-9.667-20.833s-3.167-12.167-4.167-19.833s-0.667-9.667-0.667-9.667
	s-15.5,20.833-19,29.833s-11.153,26.699-13,44.667c-1.833,17.833-0.167,32.667,5.333,43s12.667,13.833,17.667,15.5
	s12.333,3,20.333-0.5c0,0,0.129-0.064,0.341-0.166c1.475,2.292,4.552,6.651,7.992,8.999c5.25,3.583,13.917,6.416,16.917,8.583
	c2.398,1.732,3.936,3.352,5.013,4.658c-15.993,16.557-28.351,35.613-35.551,53.956c-8.029,20.454-9.629,40.075-2.149,54.369
	c-11.897,11.493-27.642,25.649-44.242,42.468c-3.104,1.105-7.471,1.617-12.565,1.617c-24.194,0.099-64.823-13.706-84.267-36.779
	l-4.28-5.041l-0.823,6.561c-0.391,3.471-0.655,6.957-0.619,10.453c0.16,34.838,17.813,81.557,41.88,99.922
	c-2.5,4.341-4.874,8.782-7.121,13.294l-0.013-0.015v-0.012c-22.571,22.259-58.239,32.203-95.967,32.191
	c-65.783,0.098-140.729-33.382-163.305-82.162c1.462,65.885,40.025,112.757,88.672,138.593
	c48.706,25.927,105.361,35.067,139.898,35.087c5.174-0.01,9.844-0.222,13.952-0.603c1.387,5.692,3.108,11.447,5.157,17.255
	c1.715,4.856,6.729,10.924,13.777,17.971s16.124,14.885,25.828,22.305c19.409,14.839,41.033,28.112,55.039,30.056
	c13.083,1.819,25.444,3.808,34.742,4.158c4.649,0.175,8.529-0.026,11.558-1.022c1.514-0.497,2.837-1.224,3.841-2.325
	s1.597-2.59,1.62-4.158c0.104-6.774,1.504-13.149,3.63-19.273c1.035,1.765,2.616,3.349,4.51,4.687
	c3.62,2.557,8.493,4.575,13.812,6.131c10.641,3.111,22.882,4.388,30.304,3.065c51.707-9.241,83.474-45.598,119.837-87.526
	c10.406-12.673,25.224-24.446,37.414-34.678c-22.2,11.865-35.233,26.675-40.374,32.105c-36.356,41.922-67.319,77.281-117.547,86.258
	c-6.175,1.101-18.429-0.038-28.541-2.995c-5.057-1.479-9.611-3.421-12.649-5.567c-2.987-2.109-4.281-4.124-4.088-6.166
	c0.053-0.099,0.113-0.191,0.212-0.353c0.271-0.445,0.7-1.078,1.232-1.832c1.065-1.507,2.562-3.521,4.299-5.673
	c3.477-4.306,7.903-9.259,11.522-12.368c18.52-15.913,54.2-32.972,76.779-48.555c5.645-3.896,10.497-7.706,14.095-11.487
	c3.597-3.781,6.044-7.563,6.483-11.558c0.438-3.994-1.432-7.923-5.427-11.134s-10.098-5.964-18.852-8.492l-2.607-0.775l0.106,2.713
	c0.328,8.342-5.121,16.878-14.024,25.969c-8.903,9.092-21.078,18.626-33.403,29.035c-24.65,20.818-50.129,45.359-50.635,78.399
	c-0.011,0.751-0.206,1.155-0.599,1.586c-0.392,0.431-1.098,0.876-2.185,1.233c-2.173,0.714-5.748,1.013-10.184,0.846
	c-8.869-0.334-21.189-2.297-34.319-4.123c-12.034-1.67-34.038-14.66-53.206-29.316c-9.584-7.327-18.557-15.033-25.44-21.916
	c-6.885-6.884-11.661-13.128-12.861-16.526c-1.992-5.645-3.643-11.24-4.991-16.766c20.032-6.907,37.997-23.226,37.947-50.127
	c0-9.708-1.896-24.453-7.09-36.764c4.734,21.658,4.366,24.386,3.461,37.316c-1.563,22.156-18.354,38.096-37.415,44.461
	c-4.178,0.447-9.147,0.698-14.717,0.698c-33.566,0.027-89.652-9.058-137.159-34.389c-44.281-23.665-80.982-60.927-86.661-118.26
	c28.619,45.813,96.299,72.693,158.55,72.783c38.731-0.012,74.538-10.936,98.706-34.698l-0.011-0.013
	c2.412-4.927,5.009-9.766,7.733-14.498c0.584,0.128,4.309,0.828,9.789,0.828c0.082,0,0.156,0,0.231-0.004
	c12.024,0,51.434-15.584,50.462-27.957c-6.071,12.146-39.645,22.523-50.701,22.559c-2.746,0.325-4.46,0.041-5.962-0.144
	c-0.842-0.102-2.565-0.301-2.965-0.379c-24.618-19.372-42.542-68.745-41.396-96.632c0-1.113,0.143-5.09,0.182-6.179
	c22.293,21.851,60.797,35.055,85.141,35.161c5.55,0,10.295-0.839,14.332-2.266l-0.005-0.01
	c17.279-17.585,33.852-32.418,46.18-44.383l1.128-1.057l-0.775-1.339c-7.427-12.804-6.311-31.956,1.727-52.431
	s22.891-42.12,42.107-59.831c10.835-9.982,30.901-21.697,54.298-30.409c22.504-8.379,48.12-14.016,71.624-13.12
	c-0.679,1.81-1.217,3.192-1.535,3.919c-1.75,4-6.336,13.168-8.168,13.917l1.667,3.083c0,0,7.5-5.417,15.75-31.25
	s21.083-74.667,21.083-74.667s6.001-29.25,5.751-33.083c0,0,13.5,13.084,18.333,19.667c4.774,6.502,11.666,12.334,16.75,28
	c5.466,16.845,4.75,22.416,4.417,25.833s-1.751,15.25-5.667,22.083c-0.715,1.247-1.492,2.661-2.335,4.188
	c-5.664,8.167-12.059,10.646-16.069,10.599c-5.287-0.012-9.603-4.539-9.696-11.99c0-3.327,0.58-10.911,1.125-15.27
	c-1.282,2.543-4.131,12.684-3.821,17.473c0.311,4.912,0.518,15.417,12.393,15.607c2.467-0.018,4.882-0.627,7.239-1.832
	c-2.117,3.025-4.468,6.007-7.084,8.725C1427.038,1022.178,1413.204,1035.345,1401.871,1042.011z M1283.705,1428.917
	c12.25-10.347,24.49-19.894,33.686-29.281c8.337-8.514,14.229-17.03,14.975-26.075c6.998,2.223,12.168,4.607,15.116,6.978
	c3.315,2.663,4.271,5.011,3.982,7.646c-0.29,2.635-2.137,5.845-5.427,9.303s-7.939,7.148-13.46,10.958
	c-22.081,15.24-57.754,32.181-77.097,48.802c-1.489,1.28-3.06,2.925-4.615,4.546
	C1259.961,1449.794,1271.787,1438.982,1283.705,1428.917z M1251.841,1053.767c-0.95-1.334-2.828-3.497-5.971-5.255
	c-4.917-2.75-7.292-3.322-11-5.25c-3.833-1.993-9.07-6.594-11.896-10.757c1.594-0.608,3.404-1.183,4.854-1.326
	c3.237-0.32,9.75,0.375,14.375,3.25s8.5,5.25,11.625,10.75c1.139,2.005,1.876,3.407,2.358,4.385
	C1254.708,1050.94,1253.266,1052.347,1251.841,1053.767z M1258.803,1047.204c-0.635-1.653-1.933-4.391-4.35-7.275
	c-3.875-4.625-7.625-7.625-13.75-10.125s-9.129-2.531-12.25-2.375c-5,0.25-8.625,3.125-12.375,4s-10.542,3.084-21.125-2.333
	s-14.333-21.083-14.333-21.083s-3.084-13.083-2-23.333c0,0,1-13.583,3-21.333s3.25-13.917,8.083-24.417s6.75-13.833,9-17.833
	s6.333-9.417,6.333-9.417s1.083,8.75,2.667,15.083s6.917,20.083,11.583,27.25s8.333,13.25,18.75,25.167s25.167,24,25.167,24
	l23.583,19.833l4.742,3.653C1278.073,1033.2,1266.704,1040.396,1258.803,1047.204z"/>
<linearGradient id="SVGID_1_" gradientUnits="userSpaceOnUse" x1="2008.4263" y1="1196.8159" x2="2665.3667" y2="1196.8159">
	<stop  offset="0" style="stop-color:#E2001A"/>
	<stop  offset="0.0192" style="stop-color:#E53817"/>
	<stop  offset="0.048" style="stop-color:#E95E0F"/>
	<stop  offset="0.077" style="stop-color:#ED7703"/>
	<stop  offset="0.1061" style="stop-color:#F08800"/>
	<stop  offset="0.1352" style="stop-color:#F29200"/>
	<stop  offset="0.1647" style="stop-color:#F29400"/>
	<stop  offset="0.3054" style="stop-color:#FDC300"/>
	<stop  offset="0.334" style="stop-color:#F3C500"/>
	<stop  offset="0.389" style="stop-color:#D9C500"/>
	<stop  offset="0.4642" style="stop-color:#A2C003"/>
	<stop  offset="0.476" style="stop-color:#97BE0D"/>
	<stop  offset="0.6257" style="stop-color:#009EE0"/>
	<stop  offset="0.703" style="stop-color:#0087CC"/>
	<stop  offset="0.7715" style="stop-color:#0073BA"/>
	<stop  offset="0.8054" style="stop-color:#006AB2"/>
	<stop  offset="0.8168" style="stop-color:#0066AF"/>
	<stop  offset="0.8762" style="stop-color:#2E4F9A"/>
	<stop  offset="0.9281" style="stop-color:#513A8C"/>
	<stop  offset="0.9702" style="stop-color:#5E2984"/>
	<stop  offset="0.997" style="stop-color:#632181"/>
</linearGradient>
<path fill="url(#SVGID_1_)" d="M2299.083,1451.922c10.194,4.86,18.319-32.53,13.106-33.009
	C2306.852,1418.424,2288.889,1447.075,2299.083,1451.922z M2480.955,1192.319c4.483-1.776,9.276-2.403,13.796-2.403
	c7.827,0.016,18.413-1.101,23.998-0.364c-5.095-3.402-15.402-5.468-23.998-5.452c-5.028,0-10.559,0.667-15.937,2.803
	c-15.301,6.42-33.671,38.543-37.932,43.9c-2.959,4.457-20.192,17.477-25.777,19.186c6.553-0.49,24.919-8.9,30.434-15.674
	c1.459-2.067,4.814-7.301,9.052-13.413c0.037,1.514,0.533,2.922,1.292,4.195c2.484,4.17,6.812,5.326,16.998-0.741
	c10.19-6.066,19.773-21.838,18.57-23.414c-1.203-1.576-17.379,2.242-27.569,8.312c-0.534,0.318-1.035,0.635-1.516,0.95
	C2468.768,1201.88,2475.709,1194.23,2480.955,1192.319z M2569.937,1042.011l2,3.083c0,0,21.334-16.083,26.917-21.667
	c0.369-0.37,0.763-0.765,1.171-1.179c26.224,17.697,49.285,36.747,65.342,63.089c-3.206-20.875-36.759-48.622-62.547-65.966
	c5.628-5.884,12.861-14.042,16.368-20.527c1.439-2.663,3.073-5.49,4.658-8.604c0.856-1.525,1.7-3.16,2.529-4.915l-0.175-0.104
	c2.285-5.365,4.146-11.599,4.653-19.209c1-15-2.417-24.167-4.25-29.5s-8.251-18.833-14.667-25.75
	c-5.385-5.805-20.415-24.417-27.249-29.083c0,0-0.583,15.584-1.499,20s-5.751,27.333-6.418,30s-9.999,37.583-12.333,45.25
	c-1.644,5.399-6.261,18.686-9.46,27.474c-2.613-0.122-5.243-0.175-7.895-0.148c-22.304,0.23-45.718,5.713-66.525,13.46
	c-5.988,2.23-11.757,4.644-17.224,7.177l-32.814-27.212c-23.115-21.692-15.625-14.438-24.125-23.625
	c-2.422-2.618-10.875-12.875-16.041-22.042c-5.167-9.167-8.167-15.5-9.667-20.833s-3.167-12.167-4.167-19.833
	s-0.666-9.667-0.666-9.667s-15.5,20.833-19,29.833s-11.153,26.699-13,44.667c-1.834,17.833-0.167,32.667,5.333,43
	s12.667,13.833,17.667,15.5s12.333,3,20.333-0.5c0,0,0.13-0.064,0.341-0.166c1.475,2.292,4.553,6.651,7.992,8.999
	c5.25,3.583,13.916,6.416,16.916,8.583c2.398,1.732,3.936,3.352,5.014,4.658c-15.994,16.557-28.352,35.613-35.552,53.956
	c-8.029,20.454-9.629,40.075-2.149,54.369c-11.897,11.493-27.642,25.649-44.242,42.468c-3.104,1.105-7.471,1.617-12.565,1.617
	c-24.194,0.099-64.823-13.706-84.267-36.779l-4.279-5.041l-0.824,6.561c-0.391,3.471-0.654,6.957-0.619,10.453
	c0.16,34.838,17.814,81.557,41.881,99.922c-2.5,4.341-4.874,8.782-7.121,13.294l-0.013-0.015v-0.012
	c-22.571,22.259-58.239,32.203-95.968,32.191c-65.782,0.098-140.729-33.382-163.305-82.162
	c1.463,65.885,40.025,112.757,88.672,138.593c48.707,25.927,105.361,35.067,139.898,35.087c5.174-0.01,9.844-0.222,13.952-0.603
	c1.388,5.692,3.108,11.447,5.157,17.255c1.715,4.856,6.729,10.924,13.776,17.971s16.124,14.885,25.828,22.305
	c19.409,14.839,41.033,28.112,55.039,30.056c13.083,1.819,25.444,3.808,34.742,4.158c4.649,0.175,8.529-0.026,11.558-1.022
	c1.514-0.497,2.837-1.224,3.841-2.325s1.597-2.59,1.62-4.158c0.104-6.774,1.504-13.149,3.63-19.273
	c1.035,1.765,2.616,3.349,4.51,4.687c3.62,2.557,8.493,4.575,13.812,6.131c10.641,3.111,22.882,4.388,30.304,3.065
	c51.707-9.241,83.474-45.598,119.837-87.526c10.406-12.673,25.224-24.446,37.414-34.678c-22.2,11.865-35.233,26.675-40.374,32.105
	c-36.356,41.922-67.319,77.281-117.547,86.258c-6.175,1.101-18.429-0.038-28.541-2.995c-5.057-1.479-9.611-3.421-12.649-5.567
	c-2.987-2.109-4.281-4.124-4.088-6.166c0.053-0.099,0.113-0.191,0.212-0.353c0.271-0.445,0.7-1.078,1.232-1.832
	c1.065-1.507,2.562-3.521,4.299-5.673c3.477-4.306,7.903-9.259,11.522-12.368c18.52-15.913,54.2-32.972,76.779-48.555
	c5.645-3.896,10.497-7.706,14.095-11.487c3.597-3.781,6.044-7.563,6.483-11.558c0.438-3.994-1.432-7.923-5.427-11.134
	s-10.098-5.964-18.852-8.492l-2.607-0.775l0.106,2.713c0.328,8.342-5.121,16.878-14.024,25.969
	c-8.903,9.092-21.078,18.626-33.403,29.035c-24.65,20.818-50.129,45.359-50.635,78.399c-0.011,0.751-0.206,1.155-0.599,1.586
	c-0.392,0.431-1.098,0.876-2.185,1.233c-2.173,0.714-5.748,1.013-10.184,0.846c-8.869-0.334-21.189-2.297-34.319-4.123
	c-12.034-1.67-34.038-14.66-53.206-29.316c-9.584-7.327-18.557-15.033-25.44-21.916c-6.885-6.884-11.661-13.128-12.861-16.526
	c-1.992-5.645-3.643-11.24-4.99-16.766c20.031-6.907,37.996-23.226,37.946-50.127c0-9.708-1.896-24.453-7.09-36.764
	c4.734,21.658,4.366,24.386,3.461,37.316c-1.563,22.156-18.354,38.096-37.415,44.461c-4.178,0.447-9.146,0.698-14.717,0.698
	c-33.565,0.027-89.651-9.058-137.158-34.389c-44.281-23.665-80.982-60.927-86.661-118.26c28.619,45.813,96.299,72.693,158.55,72.783
	c38.732-0.012,74.539-10.936,98.706-34.698l-0.011-0.013c2.412-4.927,5.009-9.766,7.733-14.498c0.584,0.128,4.309,0.828,9.789,0.828
	c0.082,0,0.156,0,0.231-0.004c12.024,0,51.434-15.584,50.462-27.957c-6.071,12.146-39.645,22.523-50.701,22.559
	c-2.746,0.325-4.46,0.041-5.962-0.144c-0.842-0.102-2.565-0.301-2.965-0.379c-24.617-19.372-42.541-68.745-41.396-96.632
	c0-1.113,0.143-5.09,0.182-6.179c22.294,21.851,60.798,35.055,85.142,35.161c5.55,0,10.295-0.839,14.332-2.266l-0.005-0.01
	c17.279-17.585,33.852-32.418,46.18-44.383l1.128-1.057l-0.775-1.339c-7.427-12.804-6.311-31.956,1.727-52.431
	s22.891-42.12,42.107-59.831c10.835-9.982,30.901-21.697,54.298-30.409c22.504-8.379,48.119-14.016,71.624-13.12
	c-0.679,1.81-1.217,3.192-1.535,3.919c-1.75,4-6.336,13.168-8.168,13.917l1.667,3.083c0,0,7.5-5.417,15.75-31.25
	s21.083-74.667,21.083-74.667s6.001-29.25,5.751-33.083c0,0,13.5,13.084,18.333,19.667c4.774,6.502,11.666,12.334,16.75,28
	c5.466,16.845,4.75,22.416,4.417,25.833s-1.751,15.25-5.667,22.083c-0.715,1.247-1.492,2.661-2.335,4.188
	c-5.664,8.167-12.059,10.646-16.069,10.599c-5.287-0.012-9.603-4.539-9.696-11.99c0-3.327,0.58-10.911,1.125-15.27
	c-1.282,2.543-4.131,12.684-3.821,17.473c0.311,4.912,0.518,15.417,12.393,15.607c2.467-0.018,4.882-0.627,7.239-1.832
	c-2.117,3.025-4.468,6.007-7.084,8.725C2595.104,1022.178,2581.27,1035.345,2569.937,1042.011z M2451.771,1428.917
	c12.25-10.347,24.49-19.894,33.686-29.281c8.337-8.514,14.229-17.03,14.975-26.075c6.998,2.223,12.168,4.607,15.116,6.978
	c3.315,2.663,4.271,5.011,3.982,7.646c-0.29,2.635-2.137,5.845-5.427,9.303s-7.939,7.148-13.46,10.958
	c-22.081,15.24-57.754,32.181-77.097,48.802c-1.489,1.28-3.06,2.925-4.615,4.546
	C2428.028,1449.794,2439.853,1438.982,2451.771,1428.917z M2419.908,1053.767c-0.95-1.334-2.828-3.497-5.972-5.255
	c-4.916-2.75-7.291-3.322-11-5.25c-3.832-1.993-9.069-6.594-11.896-10.757c1.595-0.608,3.404-1.183,4.854-1.326
	c3.236-0.32,9.75,0.375,14.375,3.25s8.5,5.25,11.625,10.75c1.139,2.005,1.877,3.407,2.357,4.385
	C2422.775,1050.94,2421.333,1052.347,2419.908,1053.767z M2426.87,1047.204c-0.635-1.653-1.933-4.391-4.35-7.275
	c-3.875-4.625-7.625-7.625-13.75-10.125s-9.129-2.531-12.25-2.375c-5,0.25-8.625,3.125-12.375,4s-10.542,3.084-21.125-2.333
	s-14.333-21.083-14.333-21.083s-3.084-13.083-2.001-23.333c0,0,1-13.583,3-21.333s3.25-13.917,8.084-24.417s6.75-13.833,9-17.833
	s6.334-9.417,6.334-9.417s1.082,8.75,2.666,15.083s6.917,20.083,11.584,27.25c4.666,7.167,8.333,13.25,18.75,25.167
	c10.416,11.917,25.166,24,25.166,24l23.584,19.833l4.742,3.653C2446.139,1033.2,2434.77,1040.396,2426.87,1047.204z"/>
<g>
	<path fill="#4D4D4D" d="M291.157,1451.922c10.194,4.86,18.319-32.53,13.106-33.009
		C298.925,1418.424,280.962,1447.075,291.157,1451.922z M473.028,1192.319c4.483-1.776,9.276-2.403,13.796-2.403
		c7.827,0.016,18.413-1.101,23.998-0.364c-5.095-3.402-15.402-5.468-23.998-5.452c-5.028,0-10.559,0.667-15.937,2.803
		c-15.301,6.42-33.671,38.543-37.932,43.9c-2.959,4.457-20.192,17.477-25.777,19.186c6.553-0.49,24.919-8.9,30.434-15.674
		c1.459-2.067,4.814-7.301,9.051-13.413c0.037,1.514,0.534,2.922,1.292,4.195c2.484,4.17,6.812,5.326,16.998-0.741
		c10.19-6.066,19.773-21.838,18.57-23.414c-1.203-1.576-17.379,2.242-27.569,8.312c-0.534,0.318-1.035,0.635-1.516,0.95
		C460.842,1201.88,467.783,1194.23,473.028,1192.319z M562.01,1042.011l2,3.083c0,0,21.334-16.083,26.917-21.667
		c0.369-0.37,0.763-0.765,1.171-1.179c26.224,17.697,49.285,36.747,65.342,63.089c-3.206-20.875-36.759-48.622-62.547-65.966
		c5.628-5.884,12.861-14.042,16.368-20.527c1.439-2.663,3.073-5.49,4.658-8.604c0.856-1.525,1.7-3.16,2.529-4.915l-0.175-0.104
		c2.285-5.365,4.146-11.599,4.653-19.209c1-15-2.417-24.167-4.25-29.5s-8.251-18.833-14.667-25.75
		c-5.385-5.805-20.415-24.417-27.249-29.083c0,0-0.583,15.584-1.499,20s-5.751,27.333-6.418,30s-9.999,37.583-12.333,45.25
		c-1.644,5.399-6.261,18.686-9.46,27.474c-2.613-0.122-5.243-0.175-7.895-0.148c-22.304,0.23-45.718,5.713-66.525,13.46
		c-5.988,2.23-11.757,4.644-17.224,7.177l-32.814-27.212c-23.116-21.692-15.625-14.438-24.125-23.625
		c-2.422-2.618-10.875-12.875-16.042-22.042s-8.167-15.5-9.667-20.833s-3.167-12.167-4.167-19.833s-0.667-9.667-0.667-9.667
		s-15.5,20.833-19,29.833s-11.153,26.699-13,44.667c-1.833,17.833-0.167,32.667,5.333,43s12.667,13.833,17.667,15.5
		s12.333,3,20.333-0.5c0,0,0.129-0.064,0.341-0.166c1.475,2.292,4.552,6.651,7.992,8.999c5.25,3.583,13.917,6.416,16.917,8.583
		c2.398,1.732,3.936,3.352,5.013,4.658c-15.993,16.557-28.351,35.613-35.551,53.956c-8.029,20.454-9.629,40.075-2.149,54.369
		c-11.897,11.493-27.642,25.649-44.242,42.468c-3.104,1.105-7.471,1.617-12.565,1.617c-24.194,0.099-64.823-13.706-84.267-36.779
		l-4.28-5.041l-0.823,6.561c-0.391,3.471-0.655,6.957-0.619,10.453c0.16,34.838,17.813,81.557,41.88,99.922
		c-2.5,4.341-4.874,8.782-7.121,13.294l-0.013-0.015v-0.012c-22.571,22.259-58.239,32.203-95.967,32.191
		c-65.783,0.098-140.729-33.382-163.305-82.162c1.462,65.885,40.025,112.757,88.672,138.593
		c48.706,25.927,105.361,35.067,139.898,35.087c5.174-0.01,9.844-0.222,13.952-0.603c1.387,5.692,3.108,11.447,5.157,17.255
		c1.715,4.856,6.729,10.924,13.777,17.971s16.124,14.885,25.828,22.305c19.409,14.839,41.033,28.112,55.039,30.056
		c13.083,1.819,25.444,3.808,34.742,4.158c4.649,0.175,8.529-0.026,11.558-1.022c1.514-0.497,2.837-1.224,3.841-2.325
		s1.597-2.59,1.62-4.158c0.104-6.774,1.504-13.149,3.63-19.273c1.035,1.765,2.616,3.349,4.51,4.687
		c3.62,2.557,8.493,4.575,13.812,6.131c10.641,3.111,22.882,4.388,30.304,3.065c51.707-9.241,83.474-45.598,119.837-87.526
		c10.406-12.673,25.224-24.446,37.414-34.678c-22.2,11.865-35.233,26.675-40.374,32.105
		c-36.356,41.922-67.319,77.281-117.547,86.258c-6.175,1.101-18.429-0.038-28.541-2.995c-5.057-1.479-9.611-3.421-12.649-5.567
		c-2.987-2.109-4.281-4.124-4.088-6.166c0.053-0.099,0.113-0.191,0.212-0.353c0.271-0.445,0.7-1.078,1.232-1.832
		c1.065-1.507,2.562-3.521,4.299-5.673c3.477-4.306,7.903-9.259,11.522-12.368c18.52-15.913,54.2-32.972,76.779-48.555
		c5.645-3.896,10.497-7.706,14.095-11.487c3.597-3.781,6.044-7.563,6.483-11.558c0.438-3.994-1.432-7.923-5.427-11.134
		s-10.098-5.964-18.852-8.492l-2.607-0.775l0.106,2.713c0.328,8.342-5.121,16.878-14.024,25.969
		c-8.903,9.092-21.078,18.626-33.403,29.035c-24.65,20.818-50.129,45.359-50.635,78.399c-0.011,0.751-0.206,1.155-0.599,1.586
		c-0.392,0.431-1.098,0.876-2.185,1.233c-2.173,0.714-5.748,1.013-10.184,0.846c-8.869-0.334-21.189-2.297-34.319-4.123
		c-12.034-1.67-34.038-14.66-53.206-29.316c-9.584-7.327-18.557-15.033-25.44-21.916c-6.885-6.884-11.661-13.128-12.861-16.526
		c-1.992-5.645-3.643-11.24-4.991-16.766c20.032-6.907,37.997-23.226,37.947-50.127c0-9.708-1.896-24.453-7.09-36.764
		c4.734,21.658,4.366,24.386,3.461,37.316c-1.563,22.156-18.354,38.096-37.415,44.461c-4.178,0.447-9.147,0.698-14.717,0.698
		c-33.566,0.027-89.652-9.058-137.159-34.389c-44.281-23.665-80.982-60.927-86.661-118.26
		c28.619,45.813,96.299,72.693,158.55,72.783c38.731-0.012,74.538-10.936,98.706-34.698l-0.011-0.013
		c2.412-4.927,5.009-9.766,7.733-14.498c0.584,0.128,4.309,0.828,9.789,0.828c0.082,0,0.156,0,0.231-0.004
		c12.024,0,51.434-15.584,50.462-27.957c-6.071,12.146-39.645,22.523-50.701,22.559c-2.746,0.325-4.46,0.041-5.962-0.144
		c-0.842-0.102-2.565-0.301-2.965-0.379c-24.618-19.372-42.542-68.745-41.396-96.632c0-1.113,0.143-5.09,0.182-6.179
		c22.293,21.851,60.797,35.055,85.141,35.161c5.55,0,10.295-0.839,14.332-2.266l-0.005-0.01
		c17.279-17.585,33.852-32.418,46.18-44.383l1.128-1.057l-0.775-1.339c-7.427-12.804-6.311-31.956,1.727-52.431
		s22.891-42.12,42.107-59.831c10.835-9.982,30.901-21.697,54.298-30.409c22.504-8.379,48.12-14.016,71.624-13.12
		c-0.679,1.81-1.217,3.192-1.535,3.919c-1.75,4-6.336,13.168-8.168,13.917l1.667,3.083c0,0,7.5-5.417,15.75-31.25
		s21.083-74.667,21.083-74.667s6.001-29.25,5.751-33.083c0,0,13.5,13.084,18.333,19.667c4.774,6.502,11.666,12.334,16.75,28
		c5.466,16.845,4.75,22.416,4.417,25.833s-1.751,15.25-5.667,22.083c-0.715,1.247-1.492,2.661-2.335,4.188
		c-5.664,8.167-12.059,10.646-16.069,10.599c-5.287-0.012-9.603-4.539-9.696-11.99c0-3.327,0.58-10.911,1.125-15.27
		c-1.282,2.543-4.131,12.684-3.821,17.473c0.311,4.912,0.518,15.417,12.393,15.607c2.467-0.018,4.882-0.627,7.239-1.832
		c-2.117,3.025-4.468,6.007-7.084,8.725C587.177,1022.178,573.343,1035.345,562.01,1042.011z M443.844,1428.917
		c12.25-10.347,24.49-19.894,33.686-29.281c8.337-8.514,14.229-17.03,14.975-26.075c6.998,2.223,12.168,4.607,15.116,6.978
		c3.315,2.663,4.271,5.011,3.982,7.646c-0.29,2.635-2.137,5.845-5.427,9.303s-7.939,7.148-13.46,10.958
		c-22.081,15.24-57.754,32.181-77.097,48.802c-1.489,1.28-3.06,2.925-4.615,4.546
		C420.101,1449.794,431.926,1438.982,443.844,1428.917z M411.981,1053.767c-0.95-1.334-2.828-3.497-5.971-5.255
		c-4.917-2.75-7.292-3.322-11-5.25c-3.833-1.993-9.07-6.594-11.896-10.757c1.594-0.608,3.404-1.183,4.854-1.326
		c3.237-0.32,9.75,0.375,14.375,3.25s8.5,5.25,11.625,10.75c1.139,2.005,1.876,3.407,2.358,4.385
		C414.848,1050.94,413.406,1052.347,411.981,1053.767z M418.943,1047.204c-0.635-1.653-1.933-4.391-4.35-7.275
		c-3.875-4.625-7.625-7.625-13.75-10.125s-9.129-2.531-12.25-2.375c-5,0.25-8.625,3.125-12.375,4s-10.542,3.084-21.125-2.333
		s-14.333-21.083-14.333-21.083s-3.084-13.083-2-23.333c0,0,1-13.583,3-21.333s3.25-13.917,8.083-24.417s6.75-13.833,9-17.833
		s6.333-9.417,6.333-9.417s1.083,8.75,2.667,15.083s6.917,20.083,11.583,27.25s8.333,13.25,18.75,25.167s25.167,24,25.167,24
		l23.583,19.833l4.742,3.653C438.212,1033.2,426.843,1040.396,418.943,1047.204z"/>
	<g>
		<path fill="none" d="M291.157,1451.922c10.194,4.86,18.319-32.53,13.106-33.009
			C298.925,1418.424,280.962,1447.075,291.157,1451.922z M473.028,1192.319c4.483-1.776,9.276-2.403,13.796-2.403
			c7.827,0.016,18.413-1.101,23.998-0.364c-5.095-3.402-15.402-5.468-23.998-5.452c-5.028,0-10.559,0.667-15.937,2.803
			c-15.301,6.42-33.671,38.543-37.932,43.9c-2.959,4.457-20.192,17.477-25.777,19.186c6.553-0.49,24.919-8.9,30.434-15.674
			c1.459-2.067,4.814-7.301,9.051-13.413c0.037,1.514,0.534,2.922,1.292,4.195c2.484,4.17,6.812,5.326,16.998-0.741
			c10.19-6.066,19.773-21.838,18.57-23.414c-1.203-1.576-17.379,2.242-27.569,8.312c-0.534,0.318-1.035,0.635-1.516,0.95
			C460.842,1201.88,467.783,1194.23,473.028,1192.319z M562.01,1042.011l2,3.083c0,0,21.334-16.083,26.917-21.667
			c0.369-0.37,0.763-0.765,1.171-1.179c26.224,17.697,49.285,36.747,65.342,63.089c-3.206-20.875-36.759-48.622-62.547-65.966
			c5.628-5.884,12.861-14.042,16.368-20.527c1.439-2.663,3.073-5.49,4.658-8.604c0.856-1.525,1.7-3.16,2.529-4.915l-0.175-0.104
			c2.285-5.365,4.146-11.599,4.653-19.209c1-15-2.417-24.167-4.25-29.5s-8.251-18.833-14.667-25.75
			c-5.385-5.805-20.415-24.417-27.249-29.083c0,0-0.583,15.584-1.499,20s-5.751,27.333-6.418,30s-9.999,37.583-12.333,45.25
			c-1.644,5.399-6.261,18.686-9.46,27.474c-2.613-0.122-5.243-0.175-7.895-0.148c-22.304,0.23-45.718,5.713-66.525,13.46
			c-5.988,2.23-11.757,4.644-17.224,7.177l-32.814-27.212c-23.116-21.692-15.625-14.438-24.125-23.625
			c-2.422-2.618-10.875-12.875-16.042-22.042s-8.167-15.5-9.667-20.833s-3.167-12.167-4.167-19.833s-0.667-9.667-0.667-9.667
			s-15.5,20.833-19,29.833s-11.153,26.699-13,44.667c-1.833,17.833-0.167,32.667,5.333,43s12.667,13.833,17.667,15.5
			s12.333,3,20.333-0.5c0,0,0.129-0.064,0.341-0.166c1.475,2.292,4.552,6.651,7.992,8.999c5.25,3.583,13.917,6.416,16.917,8.583
			c2.398,1.732,3.936,3.352,5.013,4.658c-15.993,16.557-28.351,35.613-35.551,53.956c-8.029,20.454-9.629,40.075-2.149,54.369
			c-11.897,11.493-27.642,25.649-44.242,42.468c-3.104,1.105-7.471,1.617-12.565,1.617c-24.194,0.099-64.823-13.706-84.267-36.779
			l-4.28-5.041l-0.823,6.561c-0.391,3.471-0.655,6.957-0.619,10.453c0.16,34.838,17.813,81.557,41.88,99.922
			c-2.5,4.341-4.874,8.782-7.121,13.294l-0.013-0.015v-0.012c-22.571,22.259-58.239,32.203-95.967,32.191
			c-65.783,0.098-140.729-33.382-163.305-82.162c1.462,65.885,40.025,112.757,88.672,138.593
			c48.706,25.927,105.361,35.067,139.898,35.087c5.174-0.01,9.844-0.222,13.952-0.603c1.387,5.692,3.108,11.447,5.157,17.255
			c1.715,4.856,6.729,10.924,13.777,17.971s16.124,14.885,25.828,22.305c19.409,14.839,41.033,28.112,55.039,30.056
			c13.083,1.819,25.444,3.808,34.742,4.158c4.649,0.175,8.529-0.026,11.558-1.022c1.514-0.497,2.837-1.224,3.841-2.325
			s1.597-2.59,1.62-4.158c0.104-6.774,1.504-13.149,3.63-19.273c1.035,1.765,2.616,3.349,4.51,4.687
			c3.62,2.557,8.493,4.575,13.812,6.131c10.641,3.111,22.882,4.388,30.304,3.065c51.707-9.241,83.474-45.598,119.837-87.526
			c10.406-12.673,25.224-24.446,37.414-34.678c-22.2,11.865-35.233,26.675-40.374,32.105
			c-36.356,41.922-67.319,77.281-117.547,86.258c-6.175,1.101-18.429-0.038-28.541-2.995c-5.057-1.479-9.611-3.421-12.649-5.567
			c-2.987-2.109-4.281-4.124-4.088-6.166c0.053-0.099,0.113-0.191,0.212-0.353c0.271-0.445,0.7-1.078,1.232-1.832
			c1.065-1.507,2.562-3.521,4.299-5.673c3.477-4.306,7.903-9.259,11.522-12.368c18.52-15.913,54.2-32.972,76.779-48.555
			c5.645-3.896,10.497-7.706,14.095-11.487c3.597-3.781,6.044-7.563,6.483-11.558c0.438-3.994-1.432-7.923-5.427-11.134
			s-10.098-5.964-18.852-8.492l-2.607-0.775l0.106,2.713c0.328,8.342-5.121,16.878-14.024,25.969
			c-8.903,9.092-21.078,18.626-33.403,29.035c-24.65,20.818-50.129,45.359-50.635,78.399c-0.011,0.751-0.206,1.155-0.599,1.586
			c-0.392,0.431-1.098,0.876-2.185,1.233c-2.173,0.714-5.748,1.013-10.184,0.846c-8.869-0.334-21.189-2.297-34.319-4.123
			c-12.034-1.67-34.038-14.66-53.206-29.316c-9.584-7.327-18.557-15.033-25.44-21.916c-6.885-6.884-11.661-13.128-12.861-16.526
			c-1.992-5.645-3.643-11.24-4.991-16.766c20.032-6.907,37.997-23.226,37.947-50.127c0-9.708-1.896-24.453-7.09-36.764
			c4.734,21.658,4.366,24.386,3.461,37.316c-1.563,22.156-18.354,38.096-37.415,44.461c-4.178,0.447-9.147,0.698-14.717,0.698
			c-33.566,0.027-89.652-9.058-137.159-34.389c-44.281-23.665-80.982-60.927-86.661-118.26
			c28.619,45.813,96.299,72.693,158.55,72.783c38.731-0.012,74.538-10.936,98.706-34.698l-0.011-0.013
			c2.412-4.927,5.009-9.766,7.733-14.498c0.584,0.128,4.309,0.828,9.789,0.828c0.082,0,0.156,0,0.231-0.004
			c12.024,0,51.434-15.584,50.462-27.957c-6.071,12.146-39.645,22.523-50.701,22.559c-2.746,0.325-4.46,0.041-5.962-0.144
			c-0.842-0.102-2.565-0.301-2.965-0.379c-24.618-19.372-42.542-68.745-41.396-96.632c0-1.113,0.143-5.09,0.182-6.179
			c22.293,21.851,60.797,35.055,85.141,35.161c5.55,0,10.295-0.839,14.332-2.266l-0.005-0.01
			c17.279-17.585,33.852-32.418,46.18-44.383l1.128-1.057l-0.775-1.339c-7.427-12.804-6.311-31.956,1.727-52.431
			s22.891-42.12,42.107-59.831c10.835-9.982,30.901-21.697,54.298-30.409c22.504-8.379,48.12-14.016,71.624-13.12
			c-0.679,1.81-1.217,3.192-1.535,3.919c-1.75,4-6.336,13.168-8.168,13.917l1.667,3.083c0,0,7.5-5.417,15.75-31.25
			s21.083-74.667,21.083-74.667s6.001-29.25,5.751-33.083c0,0,13.5,13.084,18.333,19.667c4.774,6.502,11.666,12.334,16.75,28
			c5.466,16.845,4.75,22.416,4.417,25.833s-1.751,15.25-5.667,22.083c-0.715,1.247-1.492,2.661-2.335,4.188
			c-5.664,8.167-12.059,10.646-16.069,10.599c-5.287-0.012-9.603-4.539-9.696-11.99c0-3.327,0.58-10.911,1.125-15.27
			c-1.282,2.543-4.131,12.684-3.821,17.473c0.311,4.912,0.518,15.417,12.393,15.607c2.467-0.018,4.882-0.627,7.239-1.832
			c-2.117,3.025-4.468,6.007-7.084,8.725C587.177,1022.178,573.343,1035.345,562.01,1042.011z M443.844,1428.917
			c12.25-10.347,24.49-19.894,33.686-29.281c8.337-8.514,14.229-17.03,14.975-26.075c6.998,2.223,12.168,4.607,15.116,6.978
			c3.315,2.663,4.271,5.011,3.982,7.646c-0.29,2.635-2.137,5.845-5.427,9.303s-7.939,7.148-13.46,10.958
			c-22.081,15.24-57.754,32.181-77.097,48.802c-1.489,1.28-3.06,2.925-4.615,4.546
			C420.101,1449.794,431.926,1438.982,443.844,1428.917z M411.981,1053.767c-0.95-1.334-2.828-3.497-5.971-5.255
			c-4.917-2.75-7.292-3.322-11-5.25c-3.833-1.993-9.07-6.594-11.896-10.757c1.594-0.608,3.404-1.183,4.854-1.326
			c3.237-0.32,9.75,0.375,14.375,3.25s8.5,5.25,11.625,10.75c1.139,2.005,1.876,3.407,2.358,4.385
			C414.848,1050.94,413.406,1052.347,411.981,1053.767z M418.943,1047.204c-0.635-1.653-1.933-4.391-4.35-7.275
			c-3.875-4.625-7.625-7.625-13.75-10.125s-9.129-2.531-12.25-2.375c-5,0.25-8.625,3.125-12.375,4s-10.542,3.084-21.125-2.333
			s-14.333-21.083-14.333-21.083s-3.084-13.083-2-23.333c0,0,1-13.583,3-21.333s3.25-13.917,8.083-24.417s6.75-13.833,9-17.833
			s6.333-9.417,6.333-9.417s1.083,8.75,2.667,15.083s6.917,20.083,11.583,27.25s8.333,13.25,18.75,25.167s25.167,24,25.167,24
			l23.583,19.833l4.742,3.653C438.212,1033.2,426.843,1040.396,418.943,1047.204z"/>
		<path fill="#4D4D4D" d="M291.157,1454.422c10.883,4.448,18.295-29.928,13.986-37.427c-2.654-4.62-14.01,15.438-14.734,17.115
			C288.376,1438.82,285.16,1451.124,291.157,1454.422c-0.674-0.371,0.732-4.597,0-5c-1.166-0.642-1.909-1.419-2.495-2.613
			c-0.287-0.584-0.387-1.254-0.496-1.886c0.553,3.217-0.013,1.95,0.265,0.392c0.733-4.102,2.659-8.021,4.647-11.64
			c1.055-1.919,8.481-14.779,11.878-11.913c0.568,0.479,0.687,1.493,0.801,2.166c0.599,3.539,0.374-4.34-0.041,0.199
			c-0.074,0.808-0.194,1.611-0.312,2.414c-0.571,3.906-1.625,7.749-2.941,11.466c-1.467,4.144-5.279,13.879-11.307,11.415
			C291.708,1449.648,290.541,1454.17,291.157,1454.422z"/>
		<path fill="#4D4D4D" d="M473.028,1194.819c6.605-2.39,13.152-2.289,20.062-2.557c5.888-0.229,11.851-0.834,17.731-0.21
			c-0.311-0.033,0.433-4.733,0-5c-11.207-6.904-29.888-7.738-41.585-1.866c-9.95,4.996-17.356,15.825-23.667,24.607
			c-4.771,6.639-8.652,14.501-14.273,20.473c-3.463,3.679-7.661,6.766-11.717,9.748c-3.785,2.784-7.912,5.926-12.401,7.475
			c-0.381,0.131,0.264,4.972,0,5c5.646-0.605,11.17-3.294,16.196-5.774c5.465-2.697,11.619-6.031,15.121-11.187
			c2.063-3.037,4.068-6.113,6.128-9.153c0.676-0.994,1.356-1.985,2.041-2.973c0.032,0.998,0.241,1.958,0.628,2.878
			c0.375,1.18,1.242,2.248,2.079,3.132c4.554,4.814,13.78-1.237,17.68-3.941c7.75-5.375,16.652-15.382,16.594-25.27
			c-0.021-3.634-4.372-1.901-6.96-1.362c-7.779,1.62-15.517,4.649-22.245,8.866c0,1.667,0,3.333,0,5
			C459.458,1206.246,465.224,1198.096,473.028,1194.819c0.627-0.263-0.562-4.764,0-5c-7.804,3.276-13.57,11.426-18.589,17.885
			c-0.614,0.79,0.737,4.538,0,5c5.785-3.626,12.124-6.099,18.671-7.974c1.032-0.296,10.42-3.078,10.506-0.857
			c0.002-1.637,0.004-3.274,0.006-4.911c-1.056,7.002-8.612,14.481-13.504,19.012c-4.957,4.592-16.925,12.705-22.163,4.622
			c-0.514-0.847-0.884-1.753-1.109-2.718c-0.061-0.492-0.122-0.985-0.183-1.478c-0.685,0.987-1.365,1.979-2.041,2.973
			c-1.675,2.452-3.313,4.93-4.957,7.402c-2.353,3.539-4.936,6.04-8.467,8.444c-6.78,4.617-15.731,9.379-24.021,10.268
			c0,1.667,0,3.333,0,5c8.605-2.969,17.092-10.41,23.54-16.639c5.744-5.55,9.575-13.569,14.138-20.053
			c6.475-9.2,13.757-19.239,23.548-25.149c11.301-6.822,31.341-5.419,42.417,1.404c0-1.667,0-3.333,0-5
			c-5.873-0.624-11.851-0.047-17.731,0.21c-6.918,0.303-13.444,0.162-20.062,2.557
			C472.461,1190.024,473.527,1194.639,473.028,1194.819z"/>
		<path fill="#4D4D4D" d="M418.943,1044.704c-4.436-10.801-15.841-18.936-27.485-19.804c-5.658-0.422-10.032,2.528-15.24,4.028
			c-4.353,1.254-8.72,1.459-13.167,0.608c-18.234-3.49-25.71-25.831-24.291-42.358c1.808-21.056,7.538-40.041,17.418-58.758
			c1.915-3.626,3.991-7.135,6.314-10.516c0.867-1.261,1.767-2.501,2.685-3.726c-0.48,0.641,0.626,4.432,0.739,5.167
			c1.719,11.162,5.393,21.601,10.418,31.704c10.627,21.361,28.778,39.579,46.957,54.587c9.476,7.823,18.641,16.029,28.377,23.529
			c0-1.667,0-3.333,0-5C440.095,1029.849,428.809,1036.341,418.943,1044.704c-0.844,0.715,0.8,4.322,0,5
			c9.866-8.363,21.152-14.855,32.726-20.539c0.162-0.08,0.229-4.823,0-5c-9.351-7.203-18.238-15.003-27.271-22.599
			c-14.852-12.491-28.687-26.038-39.734-42.083c-6.02-8.743-10.788-17.792-14.457-27.771c-1.759-4.786-2.946-9.635-3.842-14.651
			c-0.402-2.253-0.733-4.52-1.044-6.786c-0.259-1.883-0.659-0.405-1.479,0.725c-12.34,17.01-20.732,38.08-23.748,58.822
			c-2.51,17.262-3.521,37.081,5.738,52.601c7.518,12.6,22.756,15.205,35.444,9.561c14.372-6.393,32.006,3.936,37.667,17.721
			C418.363,1048.292,419.534,1046.142,418.943,1044.704z"/>
		<path fill="#4D4D4D" d="M411.981,1051.267c-3.673-4.844-9.269-6.993-14.654-9.382c-5.723-2.54-10.562-6.833-14.213-11.881
			c0,1.667,0,3.333,0,5c14.006-4.958,27.134,5,33.212,17.06c0-1.667,0-3.333,0-5
			C414.859,1048.446,413.413,1049.848,411.981,1051.267c-0.852,0.844,0.814,4.194,0,5c1.432-1.418,2.878-2.821,4.345-4.203
			c0.358-0.337,0.252-4.5,0-5c-6.079-12.06-19.207-22.018-33.212-17.06c-0.134,0.047-0.235,4.675,0,5
			c3.698,5.111,8.499,9.209,14.213,11.881c5.372,2.511,10.941,4.485,14.654,9.382
			C411.193,1055.227,412.797,1052.343,411.981,1051.267z"/>
		<path fill="#4D4D4D" d="M443.844,1431.417c13.992-11.783,29.418-22.854,40.767-37.364c2.304-2.945,4.195-6.163,5.732-9.564
			c0.808-1.789,1.319-3.683,1.758-5.589c0.189-0.938,0.324-1.885,0.403-2.839c1.122,0.355,2.236,0.73,3.345,1.124
			c5.785,2.001,14.969,5.31,15.798,12.386c-0.002-1.637-0.004-3.273-0.007-4.911c-0.386,9.681-12.997,17.228-20.04,22.049
			c-8.756,5.994-18.004,11.273-27.181,16.587c-18.271,10.578-38.623,20.619-53.416,35.997c0,1.667,0,3.333,0,5
			C420.501,1451.955,432.001,1441.452,443.844,1431.417c0.844-0.715-0.8-4.322,0-5c-11.843,10.034-23.343,20.537-32.84,32.875
			c-0.773,1.005,0.831,4.137,0,5c13.696-14.237,32.262-23.768,49.196-33.558c8.982-5.193,17.984-10.359,26.729-15.945
			c8.334-5.324,17.704-11.235,23.084-19.763c2.095-3.319,2.301-8.865,1.186-12.619c-1.157-3.9-6.273-6.312-9.62-7.913
			c-2.377-1.138-4.879-2.015-7.366-2.875c-1.527-1.117-2.151-0.828-1.871,0.865c-0.162,1.438-0.572,2.839-0.97,4.224
			c-3.01,10.47-11.981,18.914-19.703,26.085c-8.914,8.277-18.527,15.792-27.827,23.624
			C443.001,1427.127,444.643,1430.745,443.844,1431.417z"/>
		<path fill="#4D4D4D" d="M562.01,1044.511c1.626,2.507,1.337,3.59,3.681,1.809c3.097-2.354,6.177-4.729,9.244-7.122
			c3.777-2.946,7.525-5.929,11.201-9.001c1.314-1.098,2.605-2.223,3.866-3.381c0.723-0.664,1.405-1.373,2.096-2.068
			c0.139-0.14,5.114,3.499,5.569,3.815c23.273,16.129,44.78,34.987,59.772,59.274c-0.649-1.051,0.224-3.718,0-5
			c-2.378-13.619-13.337-24.997-22.805-34.307c-12.074-11.873-25.732-22.194-39.742-31.659c0,1.667,0,3.333,0,5
			c9.823-10.334,17.322-21.225,23.556-34.047c0.211-0.435,0.286-4.829,0-5c-0.058-0.035-0.117-0.07-0.175-0.104c0,1.667,0,3.333,0,5
			c7.526-18.211,6.384-40.245-1.395-58.193c-4.568-10.54-11.015-19.005-18.437-27.603c-6.684-7.742-13.293-16.748-21.681-22.747
			c-0.002,0.03-0.004,0.06-0.007,0.089c-1.105,29.013-9.682,57.148-17.359,84.99c-2.105,7.637-4.45,15.145-7.031,22.637
			c-0.974,2.826-1.966,5.646-2.964,8.464c-0.478,1.35-0.961,2.697-1.445,4.044c-0.786,2.189-0.249,2.525-2.867,2.421
			c-8.077-0.322-16.17,0.242-24.186,1.209c-15.312,1.847-30.348,5.842-44.875,10.946c-7.007,2.461-13.871,5.317-20.62,8.413
			c-0.308,0.141-3.234-2.683-3.512-2.912c-16.138-13.383-32.483-26.442-47.331-41.285c-7.001-6.999-13.223-14.917-18.719-23.121
			c-5.191-7.75-9.913-16.478-12.787-25.382c-1.601-4.959-2.657-10.146-3.604-15.262c-0.549-2.967-0.929-5.963-1.258-8.961
			c-0.12-1.141-0.21-2.284-0.273-3.43c0.237,3.971-0.13,3.118,0.003,2.141c0.156-1.14-0.635-4.145,0-5
			c-7.89,10.624-15.696,21.528-20.598,33.877c-4.102,10.333-7.783,20.792-10.041,31.7c-1.885,9.104-2.178,18.439-2.085,27.706
			c0.183,18.253,5.457,38.931,24.831,45.067c4.633,1.467,9.434,1.638,14.192,0.778c1.816-0.328,4.844-2.602,5.925-0.959
			c1.514,2.301,3.273,4.399,5.216,6.346c6.908,6.919,17.595,7.429,24.155,15.059c0-1.667,0-3.333,0-5
			c-16.333,17.077-29.807,37.095-37.58,59.51c-5.677,16.371-8.141,37.728-0.121,53.815c0-1.667,0-3.333,0-5
			c-9.703,9.35-19.629,18.465-29.35,27.797c-2.695,2.587-5.369,5.197-8.033,7.818c-2.291,2.253-5.02,6.271-8.082,7.24
			c-5.588,1.77-12.028,1.402-17.806,0.96c-22.165-1.694-44.86-10.489-62.998-23.169c-7.393-5.168-13.292-11.556-19.085-18.379
			c0.733,0.864-1.046,8.729-1.166,10.037c-0.339,3.732-0.335,7.5-0.294,11.245c0.252,23.181,6.46,46.255,16.545,67.055
			c6.11,12.603,14.211,24.902,25.353,33.6c0-1.667,0-3.333,0-5c-0.767,1.344-7.81,12.499-7.134,13.279
			c0.008,0.833,0.017,1.667,0.025,2.5c0-0.004,0-0.008,0-0.012c0-0.321-0.259-2.273-0.025-2.5
			c-37.438,36.292-98.621,37.263-146.431,26.168c-43.039-9.987-91.948-33.455-112.331-75.058c-0.17-0.36-0.34-0.721-0.51-1.081
			c0.526,1.115-0.041,3.638-0.006,4.911c1.292,48.183,23.708,91.511,61.555,121.171c20.384,15.975,44.345,26.991,68.728,35.334
			c24.601,8.417,50.35,13.792,76.231,16.195c11.442,1.062,22.98,1.44,34.448,0.601c2.463-0.181,1.882,1.15,2.439,3.288
			c0.451,1.73,0.955,3.446,1.458,5.161c0.953,3.248,1.979,6.506,3.213,9.658c2.346,5.991,7.633,11.066,12.008,15.587
			c10.481,10.831,22.397,20.333,34.573,29.173c11.21,8.14,23.072,15.812,35.896,21.154c12.038,5.015,26.164,5.722,39.01,7.046
			c5.905,0.609,12.044,1.104,17.894-0.144c8.512-1.815,6.575-10.96,7.871-17.573c0.341-1.74,0.829-3.449,1.312-5.154
			c0.472-1.671,0.267-4.569,1.959-2.077c1.787,2.631,4.912,4.324,7.643,5.777c6.677,3.554,14.493,5.214,21.896,6.404
			c12.995,2.09,25.081-0.411,37.421-4.52c27.289-9.085,49.776-27.729,69.554-48.048c10.804-11.101,20.929-22.85,31.075-34.547
			c11.225-12.941,24.318-23.708,37.414-34.678c0.714-0.599-0.723-4.607,0-5c-36.585,19.868-58.214,56.396-88.924,83.343
			c-15.547,13.642-33.175,24.716-52.934,31.078c-10.452,3.365-20.371,4.996-31.305,3.684c-6.191-0.742-12.298-2.223-18.15-4.359
			c-4.314-1.576-11.728-4.571-11.879-10.021c-0.002,1.638-0.005,3.274-0.007,4.911c8.491-14.126,21.539-24.376,35.168-33.15
			c15.637-10.066,32.101-18.781,47.934-28.526c7.595-4.676,15.101-9.607,21.823-15.489c5.23-4.576,9.738-10.021,9.78-17.226
			c0.035-6.01-1.324-10.359-6.398-14.248c-5.903-4.525-13.566-6.504-20.57-8.587c0.189,0.057-0.026,4.403-0.007,4.911
			c0.023,0.586,0.046,1.172,0.069,1.758c0.086,2.212,0.263-2.54-0.434,1.075c-0.522,2.714-1.774,5.261-3.072,7.672
			c-3.402,6.317-8.699,11.626-13.815,16.559c-10.602,10.223-22.407,19.173-33.586,28.742
			c-19.097,16.347-38.393,35.261-45.085,60.289c-0.782,2.925-1.262,5.918-1.634,8.919c-0.275,2.227,0.201,5.967-0.99,7.777
			c-2.667,4.056-14.192,2.028-18.083,1.697c-6.976-0.593-13.917-1.657-20.845-2.644c-5.998-0.854-11.583-1.651-17.251-3.834
			c-12.495-4.813-24.039-12.479-34.941-20.13c-12.112-8.499-23.697-17.95-34.214-28.366c-4.335-4.293-8.553-8.926-11.724-14.163
			c-3.328-5.496-4.588-12.96-6.128-19.129c0,1.667,0,3.333,0,5c17.837-6.328,32.266-19.403,36.702-38.244
			c4.007-17.019,0.589-37.859-5.845-53.646c0.563,1.383-0.325,3.505,0,5c4.651,21.409,7.423,42.033-8.685,60.469
			c-7.244,8.29-18.563,15.88-29.703,16.688c-11.104,0.806-22.344,0.173-33.41-0.867c-50.783-4.771-103.356-21.165-144.106-52.547
			c-31.64-24.365-52.42-58.992-56.586-98.916c0,1.667,0,3.333,0,5c25.124,39.645,72.652,60.599,117.241,68.935
			c47.514,8.883,103.664,4.368,140.015-30.85c0.29-0.281,0.278-4.672,0-5c-0.003-0.004-0.007-0.009-0.011-0.013c0,1.667,0,3.333,0,5
			c1.164-2.353,6.202-14.763,8.573-14.342c3.824,0.678,7.873,0.92,11.74,0.49c7.993-0.89,15.948-4.043,23.273-7.197
			c7.396-3.184,15.012-7.092,20.792-12.803c3.859-3.812,3.986-7.618,3.845-12.69c-0.002-0.029-0.005-0.06-0.007-0.089
			c-4.109,7.57-13.621,11.693-21.153,14.882c-8.451,3.577-17.602,6.429-26.741,7.502c-3.956,0.465-7.806,0.224-11.734-0.348
			c-1.521-0.222-4.145-3.593-5.229-4.652c-2.072-2.022-3.965-4.223-5.798-6.46c-7.232-8.826-12.757-19.035-17.388-29.42
			c-4.703-10.544-8.259-21.629-10.66-32.918c-1.094-5.144-1.836-10.364-2.204-15.609c-0.135-1.93-0.092-3.827-0.033-5.76
			c0.016-0.537-0.481-3.551,1.107-2.019c1.363,1.313,2.799,2.548,4.241,3.773c18.192,15.453,42.241,25.164,65.623,29.123
			c9.496,1.608,19.347,2.085,28.601-0.974c0.159-0.053,0.199-4.603,0-5c-0.001-0.003-0.003-0.007-0.005-0.01c0,1.667,0,3.333,0,5
			c15.343-15.566,31.361-30.495,47.308-45.44c0.337-0.316,0.263-4.545,0-5c-11.037-19.064-3.08-41.743,5.996-60.023
			c9.487-19.109,23.4-37.022,39.654-50.851c15.75-13.4,35.735-22.405,55.021-29.341c21.78-7.833,45.096-12.64,68.309-11.914
			c0-1.667,0-3.333,0-5c-1.287,3.395-2.753,6.65-4.405,9.883c-1.28,2.503-2.812,6.388-5.298,7.954c-0.283,0.179-0.225,4.584,0,5
			c0.351,0.649,1.225,3.484,1.989,2.814c1.029-0.901,1.883-2.01,2.703-3.097c5.012-6.646,8.14-14.777,10.928-22.535
			c6.694-18.624,11.526-38.05,16.733-57.127c2.476-9.067,5.2-18.111,7.043-27.333c2.199-11,5.151-22.264,4.861-33.549
			c-0.002,1.637-0.005,3.274-0.007,4.911c7.629,7.407,14.571,15.202,21.294,23.418c9.883,12.079,15.981,26.223,18.117,41.758
			c0.173,1.259,0.143,6.028,0.289,0.716c-0.021,0.741-0.091,1.481-0.162,2.219c-0.264,2.744-0.661,5.466-1.141,8.18
			c-1.464,8.274-4.465,16.183-10.142,22.496c-4.135,4.6-10.958,8.377-17.044,5.505c-7.738-3.651-5.125-14.667-4.354-21.181
			c0.166-1.401-0.568-3.758,0-5c-3.248,7.094-4.261,15.285-3.789,23.025c0.228,3.732,0.696,7.375,2.742,10.595
			c3.588,5.646,11.601,5.036,16.857,2.627c0-1.667,0-3.333,0-5c-5.356,7.491-11.975,13.863-18.695,20.119
			c-6.855,6.381-14.104,12.508-22.14,17.355C561.246,1039.972,562.719,1044.083,562.01,1044.511
			c7.593-4.58,14.395-10.317,20.947-16.26c7.177-6.508,14.239-13.315,19.888-21.215c0.486-0.68-0.598-4.726,0-5
			c-7.565,3.467-16.126,1.782-18.706-6.728c-0.412-1.358-0.575-2.793-0.725-4.198c-0.063-0.705-0.115-1.411-0.155-2.117
			c0.183,2.942,0.38-0.991,0.445-1.394c0.639-3.961,1.654-8.149,3.331-11.811c0-1.667,0-3.333,0-5
			c-1.11,9.368-5.4,36.061,11.978,31.772c15.651-3.862,20.664-26.177,20.899-39.976c0.259-15.166-4.136-30.982-12.46-43.681
			c-7.53-11.486-17.462-21.701-27.274-31.227c0.511,0.496-0.028,4.084-0.007,4.911c-0.226-8.758-0.473-0.064-0.895,2.542
			c-0.541,3.345-1.16,6.677-1.783,10.007c-0.965,5.16-1.982,10.312-3.032,15.456c-2.079,10.182-5.403,20.266-8.16,30.277
			c-4.894,17.77-9.503,35.834-15.93,53.125c-2.561,6.89-5.646,13.871-10.096,19.773c-2.431,3.224-2.407,3.417-4.348-0.173
			c0,1.667,0,3.333,0,5c2.209-1.392,3.516-4.637,4.711-6.838c1.929-3.554,3.56-7.221,4.992-10.999c0.171-0.451-0.032-5.001,0-5
			c-25.711-0.804-51.239,5.237-75.108,14.449c-21.092,8.14-41.196,19.123-57.192,35.263c-16.945,17.097-30.872,38.056-38.344,61.026
			c-5.174,15.907-7.032,36.373,1.664,51.392c0-1.667,0-3.333,0-5c-15.946,14.945-31.964,29.874-47.308,45.44
			c-0.367,0.373-0.26,4.479,0,5c0.001,0.003,0.003,0.007,0.005,0.01c0-1.667,0-3.333,0-5c-16.459,5.439-35.576,0.489-51.438-4.872
			c-17.57-5.94-34.62-15.092-48.035-28.023c-0.002,0.03-0.004,0.06-0.007,0.089c-0.631,17.733,1.232,34.299,6.725,51.306
			c6.648,20.587,17.308,42.594,34.497,56.416c0.994,0.8,4.783,0.596,6.074,0.666c1.843,0.1,3.816-0.139,5.66-0.318
			c4.321-0.42,8.595-1.515,12.769-2.666c9.603-2.647,19.261-6.388,27.551-11.977c1.649-1.111,3.173-2.388,4.6-3.77
			c2.612-2.531,2.224-3.411,2.851-7.213c-0.525,3.181-3.374,5.821-5.661,7.829c-6.866,6.027-15.82,9.938-24.25,13.203
			c-6.113,2.369-12.652,4.565-19.223,5.121c-3.427,0.289-7-0.095-10.387-0.623c-2.422-0.378-7.389,11.948-8.573,14.342
			c-0.279,0.563-0.38,4.551,0,5c0.003,0.004,0.007,0.009,0.011,0.013c0-1.667,0-3.333,0-5
			c-36.518,35.379-92.343,39.441-140.015,30.85c-44.53-8.025-92.232-29.472-117.241-68.935c0.614,0.97-0.126,3.789,0,5
			c2.527,24.223,10.922,47.047,25.136,66.854c13.334,18.581,31.302,33.42,50.725,45.263c23.419,14.278,49.468,24.017,75.97,30.784
			c22.734,5.807,46.307,9.421,69.793,9.737c5.674,0.076,12.792,0.74,18.209-1.137c5.666-1.962,10.95-4.916,15.791-8.427
			c9.51-6.895,16.363-16.9,19.224-28.277c4.057-16.132,1.086-33.775-2.357-49.624c0,1.667,0,3.333,0,5
			c6.873,16.864,10.114,36.96,2.31,53.994c-6.277,13.702-19.299,22.977-33.167,27.896c-0.242,0.086-0.122,4.513,0,5
			c1.576,6.311,2.979,13.388,6.128,19.129c3.157,5.754,8.214,10.688,12.828,15.257c10.577,10.475,22.421,19.772,34.591,28.312
			c10.799,7.578,22.283,14.785,34.637,19.544c5.209,2.007,10.579,2.598,16.074,3.381c7.43,1.06,14.863,2.135,22.344,2.771
			c4.984,0.423,12.338,1.463,16.583-1.825c1.576-1.221,0.837-6.244,0.99-7.777c0.35-3.509,1.111-6.963,2.02-10.363
			c3.249-12.151,10.211-23.014,18.104-32.651c17.661-21.563,41.396-36.823,61.324-56.038c6.943-6.694,14.107-14.627,15.988-24.391
			c0.705-3.66,0.28-7.689,0.135-11.393c-0.002,1.638-0.005,3.274-0.007,4.911c9.657,2.872,25.93,6.73,26.947,19.073
			c-0.002-1.637-0.004-3.273-0.007-4.91c-0.59,12.868-17.021,22.046-26.533,28.208c-11.069,7.171-22.62,13.591-34.012,20.229
			c-10.899,6.352-21.803,12.81-31.897,20.4c-4.866,3.66-9.131,7.823-13.154,12.387c-2.163,2.452-4.195,5.018-6.164,7.627
			c-0.841,1.116-2.905,3.09-2.93,4.555c-0.037,2.185-0.263,4.579,0.323,6.695c1.534,5.541,11.81,8.283,16.427,9.696
			c12.496,3.824,24.867,4.176,37.466,1.077c23.625-5.812,44.27-19.047,62.28-35.053c29.872-26.546,50.889-61.937,86.715-81.393
			c0-1.667,0-3.333,0-5c-10.918,9.146-22.014,18.11-31.876,28.419c-9.381,9.807-17.852,20.541-27.001,30.575
			c-16.73,18.348-34.841,35.808-56.559,48.153c-10.706,6.086-22.256,10.54-34.206,13.47c-13.406,3.287-26.518,1.999-39.668-2.015
			c-6.214-1.896-12.81-4.749-16.567-10.281c0.537,0.79-2.468,8.89-2.738,10.27c-0.749,3.823-0.249,8.363-1.651,11.943
			c-2.093,5.344-11.853,4.688-16.259,4.566c-7.15-0.197-14.297-1.283-21.371-2.264c-6.316-0.874-12.808-1.411-18.961-3.136
			c-5.959-1.669-11.608-4.482-17.05-7.376c-13.117-6.972-25.306-15.795-36.943-24.979c-11.307-8.924-22.891-18.701-31.5-30.34
			c-3.66-4.949-5.184-10.967-6.893-16.789c-0.501-1.707-0.95-3.43-1.398-5.15c-0.656-2.518-1.283-1.627-3.612-1.456
			c-3.949,0.289-7.918,0.358-11.876,0.345c-23.49-0.079-47.052-3.782-69.835-9.307c-26.852-6.511-53.32-16.315-77.156-30.392
			c-22.193-13.105-41.525-30.983-55.738-52.515c-15.942-24.152-23.952-52.563-24.725-81.374c-0.002,1.638-0.004,3.274-0.006,4.911
			c19.827,42.021,68.493,65.255,111.365,75.786c47.637,11.701,109.02,10.654,146.872-24.812c0.345-0.334,0.69-0.669,1.035-1.003
			c-0.008-0.833-0.017-1.667-0.025-2.5c0,0.432-0.267,2.175,0.038,2.526c-0.704-0.812,6.363-11.967,7.121-13.294
			c0.244-0.428,0.314-4.755,0-5c-18.16-14.175-28.593-37.254-35.181-58.743c-3.683-12.016-6.008-24.514-6.6-37.072
			c-0.243-5.157,0.616-10.333,1.257-15.439c0.178-1.417,1.058,0.463,1.592,1.092c1.201,1.414,2.398,2.83,3.607,4.235
			c14.859,17.27,38.257,27.339,59.916,32.687c10.381,2.564,21.437,4.064,32.086,2.503c6.557-0.961,11.638-8.646,16.239-13.112
			c5.462-5.303,11.002-10.523,16.549-15.737c5.166-4.855,10.345-9.697,15.45-14.617c0.362-0.349,0.254-4.491,0-5
			c-8.901-17.856-3.016-37.933,4.593-55.182c7.894-17.894,19.636-34.057,33.108-48.143c0.293-0.307,0.286-4.667,0-5
			c-5.579-6.488-13.686-8.329-20.836-12.534c-3.587-2.109-6.211-5.498-8.535-8.871c-1.074-1.559-4.154,0.518-5.925,0.959
			c-2.514,0.626-5.15,0.622-7.716,0.477c-19.033-1.077-28.446-18.889-30.667-35.792c-2.921-22.246,5.134-43.669,13.083-63.979
			c4.207-10.748,12.161-20.625,19-29.833c0-1.667,0-3.333,0-5c-0.729,5.333,0.205,11.337,0.93,16.565
			c1.768,12.747,5.632,24.187,11.732,35.46c6.678,12.341,15.52,23.913,25.679,33.652c10.088,9.67,20.451,18.744,31.196,27.654
			c5.393,4.473,10.786,8.945,16.179,13.417c2.625,2.177,3.347,0.72,6.763-0.783c7.354-3.235,14.901-6.02,22.537-8.509
			c14.687-4.787,29.9-8.018,45.291-9.369c3.632-0.319,7.278-0.453,10.922-0.514c1.978-0.033,3.955,0.018,5.932,0.07
			c2.625,0.069,2.069-0.208,2.867-2.421c2.136-5.919,4.208-11.863,6.225-17.824c5.177-15.294,8.998-31.074,13.152-46.667
			c3.234-12.14,6.25-24.641,8.151-37.054c0.582-3.796,0.722-7.693,0.94-11.523c0.104-1.819,0.189-3.638,0.27-5.458
			c0.097-2.198,0.333-1.572,1.936-0.256c7.72,6.337,14.058,14.64,20.557,22.168c8.191,9.487,15.22,19.275,19.49,31.224
			c5.202,14.557,5.573,29.247-0.403,43.709c-0.194,0.47-0.306,4.817,0,5c0.058,0.035,0.117,0.07,0.175,0.104c0-1.667,0-3.333,0-5
			c-6.234,12.822-13.732,23.713-23.556,34.047c-0.25,0.263-0.234,4.842,0,5c14.043,9.488,27.548,19.865,39.742,31.659
			c9.508,9.197,20.44,20.762,22.805,34.307c0-1.667,0-3.333,0-5c-15.025-24.339-36.528-43.03-59.772-59.274
			c-1.382-0.966-2.775-1.916-4.167-2.866c-1.952-1.332-1.524-0.797-3.009,0.656c-1.382,1.354-2.879,2.596-4.355,3.843
			c-3.659,3.09-7.429,6.05-11.201,9.001c-3.063,2.397-6.148,4.766-9.244,7.122c-2.343,1.783-2.056,0.696-3.681-1.809
			C562.76,1040.667,561.239,1043.322,562.01,1044.511z"/>
	</g>
</g>
<g id="layer2_1_" inkscape:groupmode="layer" inkscape:label="fond">
	<path id="rect2536_1_" stroke="#FFFFFF" d="M882.306,1754.902h1122.022c45.942,0,83.186,37.243,83.186,83.185v572.023
		c0,45.941-37.243,83.184-83.186,83.184H882.306c-45.942,0-83.185-37.242-83.185-83.184v-572.023
		C799.121,1792.145,836.364,1754.902,882.306,1754.902z"/>
</g>
<g id="layer1_1_" inkscape:groupmode="layer" inkscape:label="Layer 1">
	<g id="layer3_1_" transform="matrix(1.12755,0,0,1.12755,-91.918197,-209.02063)">
		<path id="path2686_1_" sodipodi:nodetypes="cc" fill="#BE241F" stroke="#BE241F" stroke-width="3.476" d="M1192.051,1943.084
			c-5.116-11.846-20.57-7.825-28.171-22.651"/>
		<path id="path2702_1_" fill="#BE241F" d="M1096.219,2263.338c4.623,0.424-2.583,33.585-11.624,29.274
			C1075.554,2288.313,1091.485,2262.904,1096.219,2263.338z"/>
		<path fill="#BE241F" d="M1258.128,2055.086c-4.459,0-9.364,0.592-14.134,2.486c-13.57,5.694-29.862,34.183-33.641,38.934
			c-2.624,3.953-17.908,15.5-22.861,17.015c5.812-0.435,22.1-7.894,26.991-13.901c1.294-1.833,4.27-6.475,8.027-11.895
			c0.033,1.342,0.473,2.591,1.146,3.721c2.203,3.698,6.041,4.724,15.075-0.658c9.038-5.38,17.537-19.368,16.47-20.766
			c-1.067-1.397-15.413,1.989-24.451,7.372c-0.474,0.282-0.918,0.563-1.345,0.844c5.679-7.383,11.835-14.167,16.486-15.863
			c3.976-1.575,8.227-2.131,12.235-2.131c6.942,0.014,16.33-0.976,21.283-0.322
			C1274.893,2056.905,1265.751,2055.073,1258.128,2055.086z"/>
	</g>
</g>
<g id="layer4_1_" inkscape:groupmode="layer" inkscape:label="rtx">
	<g enable-background="new    ">
		<path fill="#BE241F" d="M1456.135,2295.034c-1.635,4.086-6.571,7.428-10.972,7.428h-24.73c-4.4,0-6.662-3.342-5.027-7.428
			l78.699-196.652c1.635-4.085,6.572-7.428,10.973-7.428h71.799c4.4,0,11.593,0.225,15.984,0.5c0,0,18.535,1.158,26.266,4.477
			c7.727,3.32,13.271,9.404,16.633,18.252c3.359,8.85,3.754,19.574,1.178,32.174c-3.676,17.986-11.746,32.822-24.203,44.51
			c-12.461,11.686-29.18,18.924-50.16,21.713c4.191,5.002,7.746,11.592,10.66,19.766c5.699,16.545,11.035,39.918,16.012,70.117
			h-35.697c-4.4,0-8.484-3.566-9.075-7.928c0,0-3.067-22.607-8.146-47.906c-2.785-13.656-6.84-22.844-12.17-27.557
			c-3.295-2.789-9.754-4.184-19.373-4.184h-8.59c-4.4,0-9.337,3.342-10.972,7.428L1456.135,2295.034z M1503.853,2175.715
			c-1.631,4.086,0.635,7.43,5.035,7.43h5.578c4.4,0,11.598-0.137,15.994-0.303c0,0,28.637-1.09,36.355-3.881
			c7.719-2.787,14.211-7.164,19.477-13.129c5.264-5.963,8.566-12.215,9.902-18.756c1.574-7.693-0.17-13.465-5.227-17.312
			c-3.127-2.309-10.668-3.463-22.625-3.463h-36.775c-4.4,0-9.334,3.344-10.965,7.432L1503.853,2175.715z"/>
		<path fill="#BE241F" d="M1695.117,2295.034c-1.633,4.086-6.568,7.428-10.969,7.428h-24.729c-4.4,0-6.662-3.342-5.026-7.426
			l64.59-161.307c1.636-4.086-0.626-7.428-5.026-7.428h-41.992c-4.4,0-6.666-3.344-5.035-7.43l8.176-20.487
			c1.631-4.087,6.564-7.431,10.965-7.431h139.771c4.4,0,6.666,3.344,5.035,7.431l-8.176,20.487c-1.631,4.086-6.564,7.43-10.965,7.43
			h-41.184c-4.4,0-9.336,3.344-10.969,7.43L1695.117,2295.034z"/>
		<path fill="#BE241F" d="M1813.477,2296.897c-3.161,3.061-9.347,5.564-13.747,5.564h-36.598c-4.4,0-5.43-2.52-2.289-5.602
			l97.721-95.85c3.141-3.08,4.787-9.08,3.658-13.334l-23.631-88.99c-1.129-4.252,1.547-7.732,5.947-7.732h26.482
			c4.4,0,8.976,3.466,10.169,7.701l6.838,24.273c1.193,4.236,3.024,11.197,4.07,15.471c0,0,0.841,3.438,5.327,21.52
			c0.342,0.963,0.662,2.26,0.957,3.895c13.898-14.33,25.512-26.064,34.846-35.203l33.106-32.088
			c3.16-3.062,9.345-5.568,13.745-5.568h35.115c4.4,0,5.433,2.524,2.296,5.609l-101.859,100.162
			c-3.137,3.086-4.728,9.074-3.534,13.311l23.879,84.727c1.193,4.234-1.43,7.699-5.83,7.699h-29.855c-4.4,0-8.908-3.482-10.019-7.74
			l-4.279-16.402c-1.11-4.258-2.86-11.242-3.889-15.52c0,0-5.079-21.125-6.101-28.436c-4.668,5.676-16.104,17.41-34.307,35.203
			L1813.477,2296.897z"/>
	</g>
</g>
<path fill="#BE241F" d="M1401.871,1966.104l2,3.082c0,0,21.334-16.082,26.917-21.666c0.369-0.369,0.763-0.766,1.171-1.179
	c26.224,17.697,49.285,36.747,65.342,63.089c-3.206-20.875-36.759-48.622-62.547-65.967c5.628-5.884,12.861-14.042,16.368-20.527
	c1.439-2.662,3.073-5.49,4.658-8.604c0.856-1.525,1.7-3.16,2.529-4.916l-0.175-0.104c2.285-5.365,4.146-11.6,4.653-19.209
	c1-15-2.417-24.167-4.25-29.5c-1.833-5.334-8.251-18.834-14.667-25.75c-5.385-5.805-20.415-24.418-27.249-29.084
	c0,0-0.583,15.584-1.499,20s-5.751,27.334-6.418,30s-9.999,37.583-12.333,45.25c-1.644,5.399-6.261,18.686-9.46,27.474
	c-2.613-0.122-5.243-0.175-7.895-0.147c-22.304,0.229-45.718,5.713-66.525,13.46c-5.988,2.229-11.757,4.644-17.224,7.177
	l-32.814-27.213c-23.116-21.691-15.625-14.438-24.125-23.625c-2.422-2.617-10.875-12.874-16.042-22.041s-8.167-15.5-9.667-20.834
	c-1.5-5.333-3.167-12.166-4.167-19.833s-0.667-9.667-0.667-9.667s-15.5,20.834-19,29.834s-11.153,26.699-13,44.666
	c-1.833,17.834-0.167,32.667,5.333,43c5.5,10.334,12.667,13.834,17.667,15.5c5,1.668,12.333,3,20.333-0.5
	c0,0,0.129-0.063,0.341-0.165c1.475,2.292,4.552,6.651,7.992,8.999c5.25,3.583,13.917,6.416,16.917,8.583
	c2.398,1.731,3.936,3.352,5.013,4.657c-15.993,16.558-28.351,35.613-35.551,53.956c-8.029,20.454-9.629,40.075-2.149,54.369
	c-11.897,11.493-27.642,25.649-44.242,42.468c-3.104,1.105-7.471,1.617-12.565,1.617c-24.194,0.1-64.823-13.705-84.267-36.778
	l-4.28-5.04l-0.823,6.561c-0.391,3.471-0.655,6.957-0.619,10.453c0.16,34.838,17.813,81.557,41.88,99.922
	c-2.5,4.342-4.874,8.783-7.121,13.295l-0.013-0.016v-0.012c-22.571,22.26-58.239,32.203-95.967,32.191
	c-65.783,0.098-140.729-33.381-163.305-82.162c1.462,65.885,40.025,112.758,88.672,138.594
	c48.706,25.926,105.361,35.066,139.898,35.086c5.174-0.01,9.844-0.221,13.952-0.602c1.387,5.691,3.108,11.447,5.157,17.254
	c1.715,4.857,6.729,10.924,13.777,17.971s16.124,14.885,25.828,22.305c19.409,14.84,41.033,28.113,55.039,30.057
	c13.083,1.818,25.444,3.807,34.742,4.158c4.649,0.174,8.529-0.027,11.558-1.023c1.514-0.496,2.837-1.223,3.841-2.324
	s1.597-2.59,1.62-4.158c0.104-6.775,1.504-13.15,3.63-19.273c1.035,1.764,2.616,3.348,4.51,4.686
	c3.62,2.557,8.493,4.576,13.812,6.131c10.641,3.111,22.882,4.389,30.304,3.066c51.707-9.242,83.474-45.598,119.837-87.527
	c10.406-12.672,25.224-24.445,37.414-34.678c-22.2,11.865-35.233,26.676-40.374,32.105c-36.356,41.922-67.319,77.281-117.547,86.258
	c-6.175,1.102-18.429-0.037-28.541-2.994c-5.057-1.479-9.611-3.422-12.649-5.568c-2.987-2.109-4.281-4.123-4.088-6.166
	c0.053-0.098,0.113-0.191,0.212-0.352c0.271-0.445,0.7-1.078,1.232-1.832c1.065-1.508,2.562-3.521,4.299-5.674
	c3.477-4.305,7.903-9.258,11.522-12.367c18.52-15.914,54.2-32.973,76.779-48.555c5.645-3.896,10.497-7.707,14.095-11.488
	c3.597-3.781,6.044-7.562,6.483-11.557c0.438-3.994-1.432-7.924-5.427-11.135s-10.098-5.963-18.852-8.492l-2.607-0.775l0.106,2.713
	c0.328,8.342-5.121,16.879-14.024,25.969c-8.903,9.092-21.078,18.627-33.403,29.035c-24.65,20.818-50.129,45.359-50.635,78.4
	c-0.011,0.75-0.206,1.154-0.599,1.586c-0.392,0.43-1.098,0.875-2.185,1.232c-2.173,0.715-5.748,1.014-10.184,0.846
	c-8.869-0.334-21.189-2.297-34.319-4.123c-12.034-1.67-34.038-14.66-53.206-29.316c-9.584-7.326-18.557-15.033-25.44-21.916
	c-6.885-6.883-11.661-13.127-12.861-16.525c-1.992-5.645-3.643-11.24-4.991-16.766c20.032-6.908,37.997-23.227,37.947-50.127
	c0-9.709-1.896-24.453-7.09-36.764c4.734,21.658,4.366,24.385,3.461,37.316c-1.563,22.156-18.354,38.096-37.415,44.461
	c-4.178,0.447-9.147,0.697-14.717,0.697c-33.566,0.027-89.652-9.057-137.159-34.389c-44.281-23.664-80.982-60.926-86.661-118.26
	c28.619,45.814,96.299,72.693,158.55,72.783c38.731-0.012,74.538-10.936,98.706-34.697l-0.011-0.014
	c2.412-4.926,5.009-9.766,7.733-14.498c0.584,0.129,4.309,0.828,9.789,0.828c0.082,0,0.156,0,0.231-0.004
	c12.024,0,51.434-15.584,50.462-27.957c-6.071,12.146-39.645,22.523-50.701,22.559c-2.746,0.326-4.46,0.041-5.962-0.143
	c-0.842-0.102-2.565-0.301-2.965-0.379c-24.618-19.373-42.542-68.746-41.396-96.633c0-1.112,0.143-5.09,0.182-6.179
	c22.293,21.851,60.797,35.056,85.141,35.161c5.55,0,10.295-0.84,14.332-2.266l-0.005-0.01c17.279-17.586,33.852-32.418,46.18-44.383
	l1.128-1.058l-0.775-1.339c-7.427-12.805-6.311-31.957,1.727-52.432c8.037-20.475,22.891-42.119,42.107-59.83
	c10.835-9.982,30.901-21.697,54.298-30.408c22.504-8.379,48.12-14.016,71.624-13.121c-0.679,1.811-1.217,3.192-1.535,3.92
	c-1.75,4-6.336,13.168-8.168,13.918l1.667,3.082c0,0,7.5-5.416,15.75-31.25c8.25-25.833,21.083-74.666,21.083-74.666
	s6.001-29.25,5.751-33.084c0,0,13.5,13.084,18.333,19.666c4.774,6.503,11.666,12.334,16.75,28.001
	c5.466,16.845,4.75,22.416,4.417,25.833s-1.751,15.25-5.667,22.084c-0.715,1.246-1.492,2.66-2.335,4.188
	c-5.664,8.168-12.059,10.646-16.069,10.6c-5.287-0.012-9.603-4.539-9.696-11.99c0-3.327,0.58-10.911,1.125-15.27
	c-1.282,2.543-4.131,12.684-3.821,17.473c0.311,4.912,0.518,15.418,12.393,15.607c2.467-0.018,4.882-0.628,7.239-1.832
	c-2.117,3.024-4.468,6.006-7.084,8.725C1427.038,1946.27,1413.204,1959.437,1401.871,1966.104z M1283.705,2353.01
	c12.25-10.348,24.49-19.895,33.686-29.281c8.337-8.514,14.229-17.031,14.975-26.076c6.998,2.223,12.168,4.607,15.116,6.979
	c3.315,2.662,4.271,5.01,3.982,7.645c-0.29,2.635-2.137,5.846-5.427,9.303c-3.29,3.459-7.939,7.148-13.46,10.959
	c-22.081,15.24-57.754,32.18-77.097,48.801c-1.489,1.281-3.06,2.926-4.615,4.547
	C1259.961,2373.887,1271.787,2363.075,1283.705,2353.01z M1251.841,1977.859c-0.95-1.335-2.828-3.497-5.971-5.255
	c-4.917-2.75-7.292-3.322-11-5.25c-3.833-1.994-9.07-6.595-11.896-10.758c1.594-0.608,3.404-1.183,4.854-1.326
	c3.237-0.319,9.75,0.375,14.375,3.25s8.5,5.25,11.625,10.75c1.139,2.006,1.876,3.407,2.358,4.386
	C1254.708,1975.033,1253.266,1976.44,1251.841,1977.859z M1258.803,1971.296c-0.635-1.652-1.933-4.391-4.35-7.275
	c-3.875-4.625-7.625-7.625-13.75-10.125s-9.129-2.531-12.25-2.375c-5,0.25-8.625,3.125-12.375,4s-10.542,3.084-21.125-2.332
	c-10.583-5.418-14.333-21.084-14.333-21.084s-3.084-13.084-2-23.334c0,0,1-13.582,3-21.332s3.25-13.918,8.083-24.418
	s6.75-13.832,9-17.832s6.333-9.418,6.333-9.418s1.083,8.75,2.667,15.084s6.917,20.084,11.583,27.25s8.333,13.25,18.75,25.166
	c10.417,11.917,25.167,24,25.167,24l23.583,19.834l4.742,3.652C1278.073,1957.292,1266.704,1964.489,1258.803,1971.296z"/>
<path fill="#4D4D4D" d="M1023.157,570.245c10.194,4.86,18.319-32.53,13.106-33.009
	C1030.925,536.747,1012.962,565.397,1023.157,570.245z M1205.028,310.642c4.483-1.776,9.276-2.403,13.796-2.403
	c7.827,0.016,18.413-1.101,23.998-0.364c-5.095-3.402-15.402-5.468-23.998-5.452c-5.028,0-10.559,0.667-15.937,2.803
	c-15.301,6.42-33.671,38.543-37.932,43.9c-2.959,4.457-20.192,17.477-25.777,19.186c6.553-0.49,22.915-6.683,30.434-15.674
	c1.459-2.067,4.814-7.301,9.051-13.413c0.037,1.514,0.534,2.922,1.292,4.195c2.484,4.17,6.812,5.326,16.998-0.741
	c10.19-6.066,19.773-21.838,18.57-23.414c-1.203-1.576-17.379,2.242-27.569,8.312c-0.534,0.318-1.035,0.635-1.516,0.95
	C1192.842,320.203,1199.783,312.553,1205.028,310.642z M1402.593,278.712c-43.25-55.75-15.65-74.409-13.343-75.35
	c0.062,0.101,0.128,0.197,0.189,0.298c-0.018-0.114-0.049-0.231-0.067-0.346c0.597-0.061,0.054-0.02,0.054-0.02
	c-0.02,0.003,0.604-0.17,0.584-0.167c-5-18.833-37.474-48.187-63.117-65.435c5.628-5.884,12.861-14.042,16.368-20.527
	c1.439-2.663,3.073-5.49,4.658-8.604c0.856-1.525,1.7-3.16,2.529-4.915l-0.175-0.104c2.285-5.365,4.146-11.599,4.653-19.209
	c1-15-2.417-24.167-4.25-29.5s-8.251-18.833-14.667-25.75c-5.385-5.805-20.415-24.417-27.249-29.083c0,0-0.583,15.584-1.499,20
	s-5.751,27.333-6.418,30s-9.999,37.583-12.333,45.25c-1.644,5.399-6.261,18.686-9.46,27.474c-2.613-0.122-5.243-0.175-7.895-0.148
	c-22.304,0.23-45.718,5.713-66.525,13.46c-5.988,2.23-11.757,4.644-17.224,7.177l-32.814-27.212
	c-23.116-21.692-15.625-14.438-24.125-23.625c-2.422-2.618-10.875-12.875-16.042-22.042s-8.167-15.5-9.667-20.833
	s-3.167-12.167-4.167-19.833s-0.667-9.667-0.667-9.667s-15.5,20.833-19,29.833s-11.153,26.699-13,44.667
	c-1.833,17.833-0.167,32.667,5.333,43s12.667,13.833,17.667,15.5s12.333,3,20.333-0.5c0,0,0.129-0.064,0.341-0.166
	c1.475,2.292,4.552,6.651,7.992,8.999c5.25,3.583,13.917,6.416,16.917,8.583c2.398,1.732,3.936,3.352,5.013,4.658
	c-15.993,16.557-28.351,35.613-35.551,53.956c-8.029,20.454-9.629,40.075-2.149,54.369c-11.897,11.493-27.642,25.649-44.242,42.468
	c-3.104,1.105-7.471,1.617-12.565,1.617c-24.194,0.099-64.823-13.706-84.267-36.779l-4.28-5.041l-0.823,6.561
	c-0.391,3.471-0.655,6.957-0.619,10.453c0.16,34.838,17.813,81.557,41.88,99.922c-2.5,4.341-4.874,8.782-7.121,13.294l-0.013-0.015
	v-0.012c-22.571,22.259-58.239,32.203-95.967,32.191c-65.783,0.098-140.729-33.382-163.305-82.162
	c1.462,65.885,40.025,112.757,88.672,138.593c48.706,25.927,105.361,35.067,139.898,35.087c5.174-0.01,9.844-0.222,13.952-0.603
	c1.387,5.692,3.108,11.447,5.157,17.255c1.715,4.856,6.729,10.924,13.777,17.971s16.124,14.885,25.828,22.305
	c19.409,14.839,41.033,28.112,55.039,30.056c13.083,1.819,25.444,3.808,34.742,4.158c4.649,0.175,8.529-0.026,11.558-1.022
	c1.514-0.497,2.837-1.224,3.841-2.325s1.597-2.59,1.62-4.158c0.104-6.774,1.504-13.149,3.63-19.273
	c1.035,1.765,2.616,3.349,4.51,4.687c3.62,2.557,8.493,4.575,13.812,6.131c10.641,3.111,22.882,4.388,30.304,3.065
	c51.707-9.241,83.474-45.598,119.837-87.526c10.406-12.673,25.224-24.446,37.414-34.678c-22.2,11.865-35.233,26.675-40.374,32.105
	c-36.356,41.922-67.319,77.281-117.547,86.258c-6.175,1.101-18.429-0.038-28.541-2.995c-5.057-1.479-9.611-3.421-12.649-5.567
	c-2.987-2.109-4.281-4.124-4.088-6.166c0.053-0.099,0.113-0.191,0.212-0.353c0.271-0.445,0.7-1.078,1.232-1.832
	c1.065-1.507,2.562-3.521,4.299-5.673c3.477-4.306,7.903-9.259,11.522-12.368c18.52-15.913,54.2-32.972,76.779-48.555
	c5.645-3.896,10.497-7.706,14.095-11.487c3.597-3.781,6.044-7.563,6.483-11.558c0.438-3.994-1.432-7.923-5.427-11.134
	s-10.098-5.964-18.852-8.492l-2.607-0.775l0.106,2.713c0.328,8.342-5.121,16.878-14.024,25.969
	c-8.903,9.092-21.078,18.626-33.403,29.035c-24.65,20.818-50.129,45.359-50.635,78.399c-0.011,0.751-0.206,1.155-0.599,1.586
	c-0.392,0.431-1.098,0.876-2.185,1.233c-2.173,0.714-5.748,1.013-10.184,0.846c-8.869-0.334-21.189-2.297-34.319-4.123
	c-12.034-1.67-34.038-14.66-53.206-29.316c-9.584-7.327-18.557-15.033-25.44-21.916c-6.885-6.884-11.661-13.128-12.861-16.526
	c-1.992-5.645-3.643-11.24-4.991-16.766c20.032-6.907,37.997-23.226,37.947-50.127c0-9.708-1.896-24.453-7.09-36.764
	c4.734,21.658,4.366,24.386,3.461,37.316c-1.563,22.156-18.354,38.096-37.415,44.461c-4.178,0.447-9.147,0.698-14.717,0.698
	c-33.566,0.027-89.652-9.058-137.159-34.389c-44.281-23.665-80.982-60.927-86.661-118.26c28.619,45.813,96.299,72.693,158.55,72.783
	c38.731-0.012,74.538-10.936,98.706-34.698l-0.011-0.013c2.412-4.927,5.009-9.766,7.733-14.498c0.584,0.128,4.309,0.828,9.789,0.828
	c0.082,0,0.156,0,0.231-0.004c12.024,0,51.434-15.584,50.462-27.957c-6.071,12.146-39.645,22.523-50.701,22.559
	c-2.746,0.325-4.46,0.041-5.962-0.144c-0.842-0.102-2.565-0.301-2.965-0.379c-24.618-19.372-42.542-68.745-41.396-96.632
	c0-1.113,0.143-5.09,0.182-6.179c22.293,21.851,60.797,35.055,85.141,35.161c5.55,0,10.295-0.839,14.332-2.266l-0.005-0.01
	c17.279-17.585,33.852-32.418,46.18-44.383l1.128-1.057l-0.775-1.339c-7.427-12.804-6.311-31.956,1.727-52.431
	s22.891-42.12,42.107-59.831c10.835-9.982,30.901-21.697,54.298-30.409c22.504-8.379,48.12-14.016,71.624-13.12
	c-0.679,1.81-1.217,3.192-1.535,3.919c-1.75,4-6.336,13.168-8.168,13.917l1.667,3.083c0,0,7.5-5.417,15.75-31.25
	s21.083-74.667,21.083-74.667s6.001-29.25,5.751-33.083c0,0,13.5,13.084,18.333,19.667c4.774,6.502,11.666,12.334,16.75,28
	c5.466,16.845,4.75,22.416,4.417,25.833s-1.751,15.25-5.667,22.083c-0.715,1.247-1.492,2.661-2.335,4.188
	c-5.664,8.167-12.059,10.646-16.069,10.599c-5.287-0.012-9.603-4.539-9.696-11.99c0-3.327,0.58-10.911,1.125-15.27
	c-1.282,2.543-4.131,12.684-3.821,17.473c0.311,4.912,0.518,15.417,12.393,15.607c2.467-0.018,4.882-0.627,7.239-1.832
	c-2.117,3.025-4.468,6.007-7.084,8.725c-8.584,8.917-22.418,22.083-33.751,28.75l2,3.083c0,0,21.334-16.083,26.917-21.667
	c0.369-0.37,0.763-0.765,1.171-1.179c26.114,17.623,48.416,35.532,64.464,61.703c-17.094,6.188-14.02,33.312-5.803,50.354
	c14.221,29.494,46.32,61.739,80.834,105.334c19,24-29.74,58.056-82.999,98c-28.667,21.5-42.882,43.083-47.001,48.25
	c-0.758,0.95,3.74-2.658,12.834-11.583c38.548-37.833,71.666-56,110.332-93.333S1451.16,341.315,1402.593,278.712z M1175.844,547.24
	c12.25-10.347,24.49-19.894,33.686-29.281c8.337-8.514,14.229-17.03,14.975-26.075c6.998,2.223,12.168,4.607,15.116,6.978
	c3.315,2.663,4.271,5.011,3.982,7.646c-0.29,2.635-2.137,5.845-5.427,9.303s-7.939,7.148-13.46,10.958
	c-22.081,15.24-57.754,32.181-77.097,48.802c-1.489,1.28-3.06,2.925-4.615,4.546C1152.101,568.117,1163.926,557.304,1175.844,547.24
	z M1143.981,172.089c-0.95-1.334-2.828-3.497-5.971-5.255c-4.917-2.75-7.292-3.322-11-5.25c-3.833-1.993-9.07-6.594-11.896-10.757
	c1.594-0.608,3.404-1.183,4.854-1.326c3.237-0.32,9.75,0.375,14.375,3.25s8.5,5.25,11.625,10.75
	c1.139,2.005,1.876,3.407,2.358,4.385C1146.848,169.263,1145.406,170.67,1143.981,172.089z M1150.943,165.526
	c-0.635-1.653-1.933-4.391-4.35-7.275c-3.875-4.625-7.625-7.625-13.75-10.125s-9.129-2.531-12.25-2.375
	c-5,0.25-8.625,3.125-12.375,4s-10.542,3.084-21.125-2.333s-14.333-21.083-14.333-21.083s-3.084-13.083-2-23.333
	c0,0,1-13.583,3-21.333s3.25-13.917,8.083-24.417s6.75-13.833,9-17.833s6.333-9.417,6.333-9.417s1.083,8.75,2.667,15.083
	s6.917,20.083,11.583,27.25s8.333,13.25,18.75,25.167s25.167,24,25.167,24l23.583,19.833l4.742,3.653
	C1170.212,151.522,1158.843,158.718,1150.943,165.526z"/>
<path fill="#4D4D4D" d="M1018.908,571.048c-0.835,0.235-2.838,5.985-4.45,12.779l-20.613,86.862
	c-1.612,6.794-0.783,10.246,1.843,7.669c2.625-2.577,5.885-10.416,7.242-17.422l15.03-77.577
	C1019.317,576.354,1019.744,570.814,1018.908,571.048z"/>
<path fill="#4D4D4D" d="M1029.843,571.712c0.962-0.413,1.639,2.848,1.503,7.246l-2.007,65.008c-0.136,4.398-1.597,6.983-3.247,5.746
	s-2.761-5.842-2.468-10.232l3.936-59.035C1027.854,576.054,1028.881,572.125,1029.843,571.712z"/>
<path fill="#4D4D4D" d="M1020.426,569.642c-0.375-0.968-3.41,0.786-6.747,3.901l-56.592,52.824c-3.336,3.115-3.31,5.028,0.058,4.252
	c3.368-0.776,8.769-4.053,12.001-7.282l46.084-46.058C1018.463,574.049,1020.8,570.613,1020.426,569.642z"/>
<path fill="#4D4D4D" d="M503.294,364.425c-1.11-1.727-2.461-3.228-4.001-4.499c3.712,9.018-0.593,20.53-10.619,26.977
	c-11.069,7.117-24.885,5.355-30.859-3.936c-2.623-4.079-3.295-8.932-2.291-13.694c-6.573,8.769-8.073,19.604-2.863,27.708
	c0.765,1.189,1.649,2.265,2.625,3.238c-2.745,7.385-8.753,13.242-16.714,15.182c-13.091,3.19-26.426-5.396-29.784-19.176
	c-1.475-6.051-0.778-12.095,1.572-17.244c-6.863,5.499-11.136,13.772-11.532,22.687c-4.572,4.125-10.857,6.003-17.069,4.451
	c-10.18-2.543-16.263-13.292-13.585-24.009c1.176-4.705,3.846-8.62,7.331-11.318c-7.92,1.537-14.753,7.032-17.792,14.841
	c-5.776-0.853-10.992-4.194-13.857-9.571c-4.937-9.259-1.037-20.978,8.71-26.174c4.28-2.282,8.974-2.924,13.313-2.146
	c-0.616-0.463-1.259-0.883-1.913-1.282c3.397,0.975,6.979,1.287,10.616,0.808c2.502-0.33,4.882-1.013,7.109-1.999
	c-11.946-0.423-22.358-10.255-24.114-23.588c-1.939-14.718,7.398-28.086,20.856-29.86c5.909-0.778,11.627,0.811,16.35,4.081
	c-6.168-10.875-17.333-17.507-29.071-15.961c-16.149,2.127-27.254,18.923-24.806,37.515c1.538,11.673,8.055,21.276,16.688,26.282
	c-5.656-1.504-11.868-0.969-17.44,2.001c-11.697,6.235-16.123,20.772-9.888,32.469c5.145,9.65,15.94,14.345,26.129,12.193
	c-2.058,12.233,5.609,24.182,17.848,27.241c9.691,2.421,19.477-1.426,25.087-8.972c0.104,0.558,0.207,1.115,0.343,1.672
	c4.029,16.537,20.702,26.676,37.238,22.646c13.792-3.36,23.125-15.516,23.509-29.052c8.465,4.349,20.342,3.511,30.539-3.046
	C504.939,391.9,510.463,375.574,503.294,364.425z"/>
<path fill="none" stroke="#4D4D4D" stroke-width="3" d="M508.142,118.703c0,0-27.5-41-55-16s-14.5,48-14,51.5s10.5,10.5,13,9.5
	c0,0-24.5,2-29,13.5s-10,26.5,0.5,41.5s30,14,31.5,13s21.084-3.5,27.084-27.5c0,0-13,26.25-3.084,43.5
	c6.156,10.709,19.334,9,25.334,6.5s19.5-9.25,21.666-33.5c0,0,6,43,39.333,35s30.667-38,26.667-51.333c0,0,20-0.667,25.333-14.667
	s-14.667-18.667-18.667-18.667s-14.667,0.667-18.667,8"/>
<g>
	<path fill="none" stroke="#4D4D4D" stroke-width="3" d="M904.84,657.051c-19.247,3.218-37.384-9.334-40.511-28.037
		s9.941-36.472,29.188-39.689c19.247-3.218,37.385,9.334,40.512,28.036"/>
	<path fill="none" stroke="#4D4D4D" stroke-width="3" d="M935.831,698.36c-5.536,15.085-24.315,22.07-41.945,15.6
		c-17.629-6.469-27.432-23.944-21.896-39.029c5.537-15.086,24.316-22.07,41.945-15.601"/>
	<path fill="none" stroke="#4D4D4D" stroke-width="3" d="M938.011,618.465c-8.376-5.206-10.235-17.363-4.151-27.152
		c6.084-9.789,17.807-13.503,26.183-8.297c8.377,5.207,10.235,17.362,4.151,27.151"/>
	<path fill="none" stroke="#4D4D4D" stroke-width="3" d="M987.109,698.927c14.344,13.229,15.551,35.254,2.696,49.193
		c-12.855,13.938-34.905,14.513-49.249,1.283c-14.345-13.229-15.552-35.254-2.697-49.192"/>
	<path fill="none" stroke="#4D4D4D" stroke-width="3" d="M1034.629,671.854c24.111-4.341,46.38,7.268,49.741,25.929
		s-13.461,37.31-37.572,41.65c-24.111,4.342-46.381-7.267-49.742-25.928"/>
</g>
</svg>
