<?xml version="1.0" encoding="UTF-8" standalone="no"?>
<!-- Created with Inkscape (http://www.inkscape.org/) -->
<svg
   xmlns:dc="http://purl.org/dc/elements/1.1/"
   xmlns:cc="http://creativecommons.org/ns#"
   xmlns:rdf="http://www.w3.org/1999/02/22-rdf-syntax-ns#"
   xmlns:svg="http://www.w3.org/2000/svg"
   xmlns="http://www.w3.org/2000/svg"
   xmlns:sodipodi="http://sodipodi.sourceforge.net/DTD/sodipodi-0.dtd"
   xmlns:inkscape="http://www.inkscape.org/namespaces/inkscape"
   width="1300"
   height="750"
   id="svg2412"
   sodipodi:version="0.32"
   inkscape:version="0.46"
   version="1.0"
   sodipodi:docname="logortx2.svg"
   inkscape:output_extension="org.inkscape.output.svg.inkscape">
  <defs
     id="defs2414">
    <inkscape:perspective
       sodipodi:type="inkscape:persp3d"
       inkscape:vp_x="0 : 526.18109 : 1"
       inkscape:vp_y="0 : 1000 : 0"
       inkscape:vp_z="744.09448 : 526.18109 : 1"
       inkscape:persp3d-origin="372.04724 : 350.78739 : 1"
       id="perspective2420" />
  </defs>
  <sodipodi:namedview
     id="base"
     pagecolor="#ffffff"
     bordercolor="#666666"
     borderopacity="1.0"
     gridtolerance="10000"
     guidetolerance="10"
     objecttolerance="10"
     inkscape:pageopacity="0"
     inkscape:pageshadow="2"
     inkscape:zoom="0.35"
     inkscape:cx="792.02546"
     inkscape:cy="332.5412"
     inkscape:document-units="px"
     inkscape:current-layer="layer4"
     showgrid="false"
     showborder="true"
     inkscape:window-width="1278"
     inkscape:window-height="1003"
     inkscape:window-x="0"
     inkscape:window-y="19" />
  <metadata
     id="metadata2417">
    <rdf:RDF>
      <cc:Work
         rdf:about="">
        <dc:format>image/svg+xml</dc:format>
        <dc:type
           rdf:resource="http://purl.org/dc/dcmitype/StillImage" />
      </cc:Work>
    </rdf:RDF>
  </metadata>
  <g
     inkscape:groupmode="layer"
     id="layer2"
     inkscape:label="fond">
    <rect
       style="opacity:1;fill:#000000;fill-opacity:1;stroke:#bf211f;stroke-width:10;stroke-linejoin:round;stroke-miterlimit:4;stroke-dasharray:none;stroke-dashoffset:0;stroke-opacity:1"
       id="rect2536"
       width="1288.3925"
       height="738.39288"
       x="6.5077963"
       y="6.5077906"
       ry="83.185219" />
  </g>
  <g
     inkscape:label="Layer 1"
     inkscape:groupmode="layer"
     id="layer1">
    <g
       transform="matrix(1.12755,0,0,1.12755,-91.918197,-209.02063)"
       id="layer3"
       style="display:inline">
      <path
         d="M 490.13518,393.06204 C 485.01849,381.2158 469.56525,385.2362 461.96321,370.41102"
         id="path2686"
         style="fill:#bf211f;fill-opacity:1;stroke:#bf211f;stroke-width:3.47600889;stroke-opacity:1"
         sodipodi:nodetypes="cc" />
      <path
         d="M 527.32207,365.4351 C 489.45443,334.41867 451.93145,305.30191 449.55733,259.26565 C 418.25587,299.04857 412.70468,363.50073 444.82648,371.48512 C 458.6297,374.91247 463.15895,366.66738 471.46661,367.89094 C 479.7708,369.11448 490.35177,372.62873 495.50322,386.42848"
         id="path2688"
         style="fill:none;fill-opacity:1;stroke:#bf211f;stroke-width:3.47600889;stroke-opacity:1"
         sodipodi:nodetypes="cccsc" />
      <path
         d="M 495.50322,386.42848 C 461.0351,418.19572 442.30985,464.03733 456.30078,488.15736 C 412.82635,530.35263 306.68639,617.16247 346.19125,729.13864 C 351.36355,743.77956 405.65534,787.17406 428.74993,790.37895 C 451.9975,793.61165 472.53722,797.32054 472.66236,789.0963 C 473.53135,732.26355 560.92519,703.40922 559.63556,670.68953 C 620.7612,688.34418 527.77102,719.76382 494.19276,748.61817 C 487.45626,754.40575 478.40126,766.40839 478.26219,767.56591 C 476.96914,778.33111 508.39572,784.78606 520.454,782.63787 C 565.65603,774.55963 593.46757,742.75066 625.71451,705.56781 C 649.61208,678.01349 685.32805,658.16201 708.37395,648.73854 C 737.86442,636.68027 737.84704,578.5301 738.08342,564.7825 C 740.01954,451.12743 707.53277,398.30948 649.60859,359.42684 C 604.39964,329.07433 521.7297,362.26674 495.50322,386.42848 z"
         id="path2692"
         style="fill:#bf211f;fill-opacity:0" />
      <path
         style="fill:#bf211f;fill-opacity:1;stroke:none;stroke-width:3.47600889;stroke-opacity:1"
         d="M 602.625,345.5625 C 582.84432,345.76628 562.07867,350.62919 543.625,357.5 C 522.53509,365.35236 504.4921,375.77807 494.3125,385.15625 C 476.88741,401.21593 463.47896,420.79707 456.125,439.53125 C 449.00435,457.67107 447.5856,475.07289 454.21875,487.75 C 443.44718,498.15506 429.12277,511.01555 414.0625,526.34375 L 416.53125,528.78125 C 431.85968,513.18011 446.56369,500.02079 457.5,489.40625 L 458.5,488.46875 L 457.8125,487.28125 C 451.22567,475.92571 452.21579,458.93968 459.34375,440.78125 C 466.47171,422.62282 479.64445,403.42633 496.6875,387.71875 C 506.29725,378.86554 524.09352,368.47589 544.84375,360.75 C 565.59398,353.02411 589.33357,347.90781 610.84375,349.21875 L 611.03125,345.75 C 608.25505,345.5808 605.45081,345.53339 602.625,345.5625 z M 650.5625,357.96875 L 648.625,360.875 C 672.27848,376.75282 693.09266,393.79179 707.52726,417.47449 C 704.62215,398.55652 673.60784,373.2674 650.5625,357.96875 z M 361.3125,593.21875 C 358.78341,597.59514 356.39387,602.08611 354.15625,606.65625 L 357.25,608.1875 C 359.45046,603.69328 361.8208,599.28044 364.3125,594.96875 L 361.3125,593.21875 z M 557.8125,668.34375 L 557.90625,670.75 C 558.19784,678.14798 553.36515,685.71865 545.46875,693.78125 C 537.57235,701.84385 526.77471,710.29954 515.84375,719.53125 C 493.98182,737.99467 471.38555,759.76006 470.9375,789.0625 C 470.92737,789.72795 470.754,790.0871 470.40625,790.46875 C 470.0585,790.8504 469.43237,791.24568 468.46875,791.5625 C 466.5415,792.19614 463.3708,792.46057 459.4375,792.3125 C 451.57089,792.01637 440.64443,790.27546 429,788.65625 C 418.3269,787.17512 398.8121,775.65401 381.8125,762.65625 C 373.3127,756.15737 365.35545,749.32334 359.25,743.21875 C 353.14455,737.11416 348.90855,731.57656 347.84375,728.5625 C 345.98304,723.28835 344.44742,718.06071 343.21875,712.90625 L 339.8125,713.71875 C 341.06979,718.99326 342.66193,724.3316 344.5625,729.71875 C 346.08385,734.02516 350.53057,739.40645 356.78125,745.65625 C 363.03193,751.90605 371.08099,758.85703 379.6875,765.4375 C 396.90051,778.59843 416.07851,790.36999 428.5,792.09375 C 440.10313,793.70722 451.06607,795.47082 459.3125,795.78125 C 463.43572,795.93647 466.87687,795.75798 469.5625,794.875 C 470.90532,794.43351 472.07847,793.78956 472.96875,792.8125 C 473.85903,791.83544 474.38509,790.51561 474.40625,789.125 C 474.49812,783.11655 475.73962,777.46259 477.625,772.03125 C 478.54342,773.59598 479.94505,775.00102 481.625,776.1875 C 484.83571,778.45508 489.15683,780.24535 493.875,781.625 C 503.31134,784.3843 514.16826,785.51629 520.75,784.34375 C 566.60832,776.14822 594.78169,743.90462 627.03125,706.71875 C 636.26059,695.47916 649.40157,685.0378 660.2131,675.96389 C 640.52431,686.48627 628.96501,699.62116 624.40625,704.4375 C 592.16193,741.61733 564.70203,772.97654 520.15625,780.9375 C 514.67971,781.91315 503.81201,780.90368 494.84375,778.28125 C 490.35962,776.97004 486.31993,775.24706 483.625,773.34375 C 480.9758,771.47274 479.82831,769.68639 480,767.875 C 480.04692,767.78786 480.1006,767.70528 480.1875,767.5625 C 480.42787,767.16757 480.80914,766.60584 481.28125,765.9375 C 482.22546,764.60082 483.55251,762.81543 485.09375,760.90625 C 488.17623,757.08789 492.10275,752.69513 495.3125,749.9375 C 511.73664,735.82396 543.38131,720.69594 563.40625,706.875 C 568.41249,703.41977 572.71577,700.04094 575.90625,696.6875 C 579.09673,693.33406 581.26659,689.97993 581.65625,686.4375 C 582.04591,682.89507 580.38726,679.41019 576.84375,676.5625 C 573.30024,673.71481 567.88815,671.27345 560.125,669.03125 L 557.8125,668.34375 z M 561.25,673.09375 C 567.45618,675.06465 572.04136,677.17983 574.65625,679.28125 C 577.59601,681.64375 578.44453,683.7258 578.1875,686.0625 C 577.93047,688.3992 576.29299,691.24546 573.375,694.3125 C 570.45701,697.37954 566.33333,700.65222 561.4375,704.03125 C 541.8542,717.54738 510.21662,732.57169 493.0625,747.3125 C 491.74125,748.44763 490.34843,749.90601 488.96875,751.34375 C 497.03709,740.70293 507.5247,731.11356 518.09375,722.1875 C 528.95866,713.01157 539.81436,704.54477 547.96875,696.21875 C 555.36335,688.66851 560.58843,681.11557 561.25,673.09375 z"
         id="path2694"
         sodipodi:nodetypes="cscsccccccscsccccccccccccccsssssscsssccssscsssscsscccccsscsssssssscccssssscssc" />
      <path
         d="M 600.52388,366.31629 C 611.29254,359.86134 637.98481,262.98844 637.55033,240.60295 C 663.38402,265.14705 715.04444,317.23504 623.77838,380.52273"
         id="path2696"
         style="fill:none;fill-opacity:1" />
      <path
         d="M 600.52388,366.31629 C 611.29254,359.86134 637.98481,262.98844 637.55033,240.60295 C 663.38402,265.14705 715.04444,317.23504 623.77838,380.52273"
         id="path2698"
         style="fill:none;stroke:#bf211f;stroke-width:3.47600889;stroke-opacity:1" />
      <path
         d="M 641.6972,333.59662 C 641.42265,329.34957 643.94964,320.35649 645.0863,318.10058 C 644.60314,321.96589 644.08868,328.69197 644.08868,331.6431 L 644.08868,331.6431 C 644.17212,338.25101 647.9992,342.2658 652.68834,342.27622 L 652.68834,342.27622 C 657.05073,342.32835 664.59337,339.0154 670.22103,327.15178 L 670.22103,327.15178 L 670.23147,327.15178 L 672.94716,328.77469 C 666.91627,341.53512 660.05051,347.38594 652.68834,347.43809 L 652.68834,347.43809 C 642.15656,347.27018 641.97282,337.9531 641.6972,333.59662 z"
         id="path2700"
         style="fill:#bf211f;fill-opacity:1"
         sodipodi:nodetypes="ccccccccccccc" />
      <path
         d="M 394.30268,713.31584 C 398.92577,713.7399 391.72001,746.90102 382.67893,742.59078 C 373.63781,738.29095 389.56835,712.88133 394.30268,713.31584 z"
         id="path2702"
         style="fill:#bf211f;fill-opacity:1" />
      <path
         d="M 508.43744,546.48478 L 508.43744,546.48478 C 512.21587,541.73309 528.50791,513.24371 542.07825,507.55 L 542.07825,507.55 C 546.84734,505.65558 551.75199,505.06466 556.2117,505.06466 L 556.2117,505.06466 C 563.83458,505.05076 572.9765,506.88261 577.49532,509.89979 C 572.54201,509.2463 563.1533,510.23697 556.2117,510.22305 L 556.2117,510.22305 C 552.20386,510.22305 547.9527,510.77921 543.97617,512.35386 L 543.97617,512.35386 C 533.76018,516.07665 516.27238,544.34704 512.56694,549.59928 L 512.56694,549.59928 C 507.67619,555.60584 491.38763,563.06534 485.57573,563.49984 C 490.52905,561.98431 505.81305,550.437 508.43744,546.48478 z"
         id="path2704"
         style="fill:#bf211f;fill-opacity:1" />
      <path
         d="M 553.2849,520.00106 C 554.35205,521.39843 545.8532,535.38589 536.81557,540.76676 C 527.78143,546.1476 523.94391,545.12219 521.74014,541.42371 C 519.53635,537.72525 519.804,532.75107 528.83468,527.37368 C 537.87229,521.98936 552.21778,518.60371 553.2849,520.00106 z"
         id="path2706"
         style="fill:#bf211f;fill-opacity:1;stroke:none;stroke-opacity:1" />
      <path
         d="M 415.82961,527.76995 C 397.75087,534.21446 349.10415,521.7356 327.14273,495.90538 C 323.27394,526.90095 341.34917,577.27178 364.60019,592.77479 C 364.60019,592.77479 395.16473,599.23668 411.52979,572.53747"
         id="path2769"
         style="fill:#bf211f;fill-opacity:0;stroke:none;stroke-opacity:1" />
      <path
         d="M 372.80359,596.03876 C 367.61042,596.03876 364.19351,595.32965 364.05447,595.28794 L 364.05447,595.28794 L 363.56781,595.1802 L 363.16113,594.90558 C 340.8069,579.75019 324.1742,536.69981 324.02821,504.84915 C 323.99625,501.74807 324.23087,498.65729 324.57743,495.57863 L 324.57743,495.57863 L 325.3074,489.75981 L 329.10319,494.22995 C 346.34767,514.69319 382.37998,526.93571 403.83738,526.84882 L 403.83738,526.84882 C 408.35619,526.84882 412.22886,526.39503 414.98185,525.41479 L 414.98185,525.41479 L 416.54793,528.77746 C 412.96764,530.04274 408.75941,530.78666 403.83738,530.78666 L 403.83738,530.78666 C 382.24789,530.69281 348.09924,518.98212 328.3277,499.60337 L 328.3277,499.60337 C 328.29294,500.5697 328.1666,504.09648 328.1666,505.08367 C 327.15045,529.81602 343.04673,573.60358 364.87944,590.7842 L 364.87944,590.7842 C 365.234,590.8537 366.76226,591.02982 367.5096,591.1202 L 367.5096,591.1202 C 368.84091,591.28355 370.36109,591.53615 372.79662,591.24765 L 372.79662,591.24765 C 382.60244,591.21637 412.37793,582.01307 417.76226,571.24092 C 418.62432,582.21467 383.67306,596.03529 373.00866,596.03529 L 373.00866,596.03529 C 372.94261,596.03876 372.87656,596.03876 372.80359,596.03876 L 372.80359,596.03876 z"
         id="path2771"
         style="fill:#bf211f;fill-opacity:1" />
      <path
         d="M 356.41767,606.75878 C 299.58841,662.726 157.52044,634.52861 125.87485,562.84983 C 127.81446,690.07177 292.07326,717.28196 341.2414,711.69949 C 365.13897,703.94799 385.2894,681.82667 368.04144,640.98355"
         id="path2773"
         style="fill:#bf211f;fill-opacity:0" />
      <path
         d="M 203.5428,683.83231 C 160.39857,660.91847 126.19812,619.34888 124.90156,560.91718 C 144.92338,604.17959 211.39164,633.87166 269.73296,633.78474 L 269.73296,633.78474 C 303.19303,633.79516 334.82633,624.97548 354.84468,605.23524 L 354.84468,605.23524 L 354.84468,605.24568 L 357.27242,608.17335 C 335.83934,629.2484 304.08288,638.9362 269.73296,638.94661 L 269.73296,638.94661 C 214.52351,638.86667 154.4998,615.02821 129.11797,574.39713 L 129.11797,574.39713 C 134.1547,625.24419 166.70407,658.29063 205.976,679.27875 L 205.976,679.27875 C 248.10872,701.74419 297.85038,709.80158 327.61894,709.77725 L 327.61894,709.77725 C 332.55832,709.77725 336.96591,709.55479 340.67135,709.15854 L 340.67135,709.15854 C 357.57517,703.51349 372.4664,689.37657 373.85333,669.72667 C 374.65628,658.25933 374.98304,655.84003 370.784,636.6316 C 375.38972,647.54973 377.07211,660.62647 377.07211,669.23656 L 377.07211,669.23656 C 377.1173,693.71462 360.34557,708.31734 342.03047,714.15703 L 342.03047,714.15703 L 341.80453,714.23002 L 341.52297,714.2613 C 337.52208,714.6958 332.86076,714.93912 327.61546,714.94955 L 327.61546,714.94955 C 296.98487,714.93217 246.73916,706.82613 203.5428,683.83231 L 203.5428,683.83231 z"
         id="path2775"
         style="fill:#bf211f;fill-opacity:1;stroke:none;stroke-opacity:1" />
    </g>
  </g>
  <g
     inkscape:groupmode="layer"
     id="layer4"
     inkscape:label="rtx">
    <text
       xml:space="preserve"
       style="font-size:285.68005371px;font-style:normal;font-variant:normal;font-weight:normal;font-stretch:normal;opacity:1;fill:#bf211f;fill-opacity:1;stroke:none;stroke-width:1px;stroke-linecap:butt;stroke-linejoin:miter;stroke-opacity:1;font-family:Dragonwick;-inkscape-font-specification:Dragonwick"
       x="751.0686"
       y="557.15619"
       id="text3309"
       transform="matrix(0.9668444,0,-0.2114418,1.0342926,0,0)"><tspan
         sodipodi:role="line"
         id="tspan3311"
         x="751.0686"
         y="557.15619"
         style="font-style:italic;font-variant:normal;font-weight:bold;font-stretch:normal;font-family:URW Palladio L;-inkscape-font-specification:URW Palladio L Bold Italic">RTX</tspan></text>
  </g>
</svg>
