<?xml version="1.0" encoding="UTF-8" standalone="no"?>
<!-- Created with Inkscape (http://www.inkscape.org/) -->

<svg
   xmlns:dc="http://purl.org/dc/elements/1.1/"
   xmlns:cc="http://creativecommons.org/ns#"
   xmlns:rdf="http://www.w3.org/1999/02/22-rdf-syntax-ns#"
   xmlns:svg="http://www.w3.org/2000/svg"
   xmlns="http://www.w3.org/2000/svg"
   xmlns:sodipodi="http://sodipodi.sourceforge.net/DTD/sodipodi-0.dtd"
   xmlns:inkscape="http://www.inkscape.org/namespaces/inkscape"
   version="1.0"
   width="351.46051"
   height="258.785"
   id="svg2"
   inkscape:version="0.47 r22583"
   sodipodi:docname="nvidia_white.svg">
  <metadata
     id="metadata12">
    <rdf:RDF>
      <cc:Work
         rdf:about="">
        <dc:format>image/svg+xml</dc:format>
        <dc:type
           rdf:resource="http://purl.org/dc/dcmitype/StillImage" />
        <dc:title>generated by pstoedit version:3.44 from NVBadge_2D.eps</dc:title>
      </cc:Work>
    </rdf:RDF>
  </metadata>
  <sodipodi:namedview
     pagecolor="#ffffff"
     bordercolor="#666666"
     borderopacity="1"
     objecttolerance="10"
     gridtolerance="10"
     guidetolerance="10"
     inkscape:pageopacity="0"
     inkscape:pageshadow="2"
     inkscape:window-width="1596"
     inkscape:window-height="571"
     id="namedview10"
     showgrid="false"
     inkscape:zoom="0.7375"
     inkscape:cx="-85.357492"
     inkscape:cy="117.47749"
     inkscape:window-x="0"
     inkscape:window-y="590"
     inkscape:window-maximized="0"
     inkscape:current-layer="svg2" />
  <defs
     id="defs24">
    <inkscape:perspective
       sodipodi:type="inkscape:persp3d"
       inkscape:vp_x="0 : 160 : 1"
       inkscape:vp_y="0 : 1000 : 0"
       inkscape:vp_z="400 : 160 : 1"
       inkscape:persp3d-origin="200 : 106.66667 : 1"
       id="perspective14" />
    <clipPath
       id="clippath1">
      <path
         d="m 0,332 0,460 480,0 0,-460 -480,0 z"
         id="path9" />
    </clipPath>
  </defs>
  <title
     id="title4">generated by pstoedit version:3.44 from NVBadge_2D.eps</title>
  <path
     d="m 349.0075,250.597 c 0,3.77 -2.769,6.301 -6.047,6.301 l 0,-0.023 c -3.371,0.023 -6.089,-2.508 -6.089,-6.278 0,-3.769 2.718,-6.293 6.089,-6.293 3.278,0 6.047,2.524 6.047,6.293 z m 2.453,0 c 0,-5.175 -4.019,-8.179 -8.5,-8.179 -4.511,0 -8.531,3.004 -8.531,8.179 0,5.172 4.02,8.188 8.531,8.188 4.481,0 8.5,-3.016 8.5,-8.188 m -9.91,0.692 0.91,0 2.11,3.703 2.316,0 -2.336,-3.859 c 1.207,-0.086 2.2,-0.661 2.2,-2.286 0,-2.019 -1.391,-2.668 -3.75,-2.668 l -3.411,0 0,8.813 1.961,0 0,-3.703 m 0,-1.492 0,-2.122 1.364,0 c 0.742,0 1.753,0.059 1.753,0.965 0,0.985 -0.523,1.157 -1.398,1.157 l -1.719,0"
     style="fill:#ffffff;fill-opacity:1;fill-rule:nonzero;stroke-width:0pt;stroke-linecap:butt;stroke-linejoin:miter;stroke-miterlimit:10"
     id="path17" />
  <path
     d="m 294.2185,205.515 10.598,28.993 -21.524,0 10.926,-28.993 z m -11.351,-11.289 -24.422,61.879 17.246,0 3.863,-10.933 28.903,0 3.656,10.933 18.722,0 -24.605,-61.887 -23.363,0.008 z m -49.032,61.903 17.497,0 0,-61.922 -17.5,-0.004 0.003,61.926 z m -121.468,-61.926 -14.598,49.078 -13.984,-49.074 -18.879,-0.004 19.972,61.926 25.207,0 20.133,-61.926 -17.851,0 z m 70.726,13.484 7.52,0 c 10.91,0 17.965,4.899 17.965,17.61 0,12.714 -7.055,17.613 -17.965,17.613 l -7.52,0 0,-35.223 z m -17.351,-13.484 0,61.926 28.367,0 c 15.113,0 20.047,-2.512 25.383,-8.149 3.769,-3.957 6.207,-12.64 6.207,-22.133 0,-8.707 -2.063,-16.468 -5.66,-21.304 -6.481,-8.649 -15.817,-10.34 -29.75,-10.34 l -24.547,0 z M 0,194.117 l 0,62.012 17.6445,0 0,-47.086 13.672,0.004 c 4.527,0 7.754,1.128 9.934,3.457 2.765,2.945 3.894,7.699 3.894,16.394 l 0,27.231 17.098,0 0,-34.262 c 0,-24.453 -15.586,-27.75 -30.836,-27.75 L 0,194.117 z m 137.5825,0.086 0.007,61.926 17.489,0 0,-61.926 -17.496,0 z"
     style="fill:#ffffff;fill-opacity:1;fill-rule:nonzero;stroke-width:0pt;stroke-linecap:butt;stroke-linejoin:miter;stroke-miterlimit:10"
     id="path19" />
  <path
     d="m 47.0235,70.902 c 0,0 22.504,-33.203 67.437,-36.637 l 0,-12.047 c -49.769,3.997 -92.8667,46.149 -92.8667,46.149 0,0 24.4097,70.566 92.8667,77.027 l 0,-12.804 C 64.2225,126.269 47.0235,70.902 47.0235,70.902 z m 67.437,36.223 0,11.726 c -37.968,-6.769 -48.507,-46.238 -48.507,-46.238 0,0 18.23,-20.195 48.507,-23.469 l 0,12.867 c -0.023,0 -0.039,-0.007 -0.058,-0.007 -15.891,-1.907 -28.305,12.937 -28.305,12.937 0,0 6.957,24.992 28.363,32.184 m 0,-107.125 0,22.218 c 1.461,-0.113 2.922,-0.207 4.391,-0.257 56.582,-1.907 93.449,46.406 93.449,46.406 0,0 -42.343,51.488 -86.457,51.488 -4.043,0 -7.828,-0.375 -11.383,-1.004 l 0,13.739 c 3.04,0.386 6.192,0.613 9.481,0.613 41.051,0 70.738,-20.965 99.484,-45.778 4.766,3.817 24.278,13.102 28.289,17.168 -27.332,22.883 -91.031,41.329 -127.144,41.329 -3.481,0 -6.824,-0.211 -10.11,-0.528 l 0,19.305 156.032,0 0,-164.699 -156.032,0 z m 0,49.144 0,-14.879 c 1.446,-0.101 2.903,-0.179 4.391,-0.226 40.688,-1.278 67.383,34.965 67.383,34.965 0,0 -28.832,40.043 -59.746,40.043 -4.449,0 -8.438,-0.715 -12.028,-1.922 l 0,-45.114 c 15.84,1.914 19.028,8.911 28.551,24.786 l 21.18,-17.86 c 0,0 -15.461,-20.277 -41.524,-20.277 -2.835,0 -5.546,0.199 -8.207,0.484"
     style="fill:#74b71b;fill-opacity:1;fill-rule:nonzero;stroke-width:0pt;stroke-linecap:butt;stroke-linejoin:miter;stroke-miterlimit:10"
     id="path21" />
</svg>
