<?xml version="1.0" encoding="UTF-8" standalone="no"?>
<!-- Generator: Adobe Illustrator 14.0.0, SVG Export Plug-In . SVG Version: 6.00 Build 43363)  -->
<svg xmlns:dc="http://purl.org/dc/elements/1.1/" xmlns:cc="http://creativecommons.org/ns#" xmlns:rdf="http://www.w3.org/1999/02/22-rdf-syntax-ns#" xmlns:svg="http://www.w3.org/2000/svg" xmlns="http://www.w3.org/2000/svg" xmlns:sodipodi="http://sodipodi.sourceforge.net/DTD/sodipodi-0.dtd" xmlns:inkscape="http://www.inkscape.org/namespaces/inkscape" version="1.0" x="0px" y="0px" width="275.64819" height="47.017429" viewBox="-73 14.917 407.452 65" enable-background="new -73 14.917 407.452 65" xml:space="preserve" id="svg2" sodipodi:version="0.32" inkscape:version="0.46" sodipodi:docname="Windows_7_wordmark.svg" inkscape:output_extension="org.inkscape.output.svg.inkscape"><metadata id="metadata795"><rdf:RDF><cc:Work rdf:about=""><dc:format>image/svg+xml</dc:format><dc:type rdf:resource="http://purl.org/dc/dcmitype/StillImage"/></cc:Work></rdf:RDF></metadata><defs id="defs793"><inkscape:perspective sodipodi:type="inkscape:persp3d" inkscape:vp_x="0 : 32.5 : 1" inkscape:vp_y="0 : 1000 : 0" inkscape:vp_z="407.452 : 32.5 : 1" inkscape:persp3d-origin="203.726 : 21.666667 : 1" id="perspective797"/>
	
	
	
	
	
	
	
	
	
</defs><sodipodi:namedview inkscape:window-height="838" inkscape:window-width="1440" inkscape:pageshadow="2" inkscape:pageopacity="0.0" guidetolerance="10.0" gridtolerance="10.0" objecttolerance="10.0" borderopacity="1.0" bordercolor="#666666" pagecolor="#ffffff" id="base" showgrid="false" borderlayer="false" showborder="true" inkscape:showpageshadow="false" inkscape:zoom="1.8881542" inkscape:cx="277.68616" inkscape:cy="40.85411" inkscape:window-x="-8" inkscape:window-y="-8" inkscape:current-layer="svg2"/>
<g id="g3600" transform="matrix(1.29632, 0, 0, 1.29632, -86.9639, -14.9023)"><path d="M 58.974,62.532 C 58.442,64.524 58.129,66.114 58.037,67.298 L 57.897,67.298 C 57.711,65.627 57.433,64.086 57.063,62.672 L 46.524,24.137 L 40.891,24.137 L 29.831,62.393 C 29.229,64.503 28.882,66.171 28.789,67.403 L 28.649,67.403 C 28.511,65.639 28.222,63.971 27.78,62.393 L 17.172,24.137 L 10.772,24.137 L 25.345,74.011 L 32.127,74.011 L 42.457,37.458 C 42.92,35.858 43.233,34.2 43.394,32.483 L 43.534,32.483 C 43.604,34.27 43.86,35.95 44.299,37.526 L 54.56,74.013 L 61.411,74.013 L 75.497,24.138 L 69.167,24.138 L 58.974,62.532 z M 79.36,74.011 L 85.063,74.011 L 85.063,38.396 L 79.36,38.396 L 79.36,74.011 z M 82.281,21.944 C 81.261,21.944 80.386,22.299 79.656,23.006 C 78.925,23.713 78.56,24.589 78.56,25.632 C 78.56,26.721 78.926,27.615 79.656,28.309 C 80.386,29.006 81.261,29.353 82.281,29.353 C 83.326,29.353 84.21,28.993 84.942,28.275 C 85.673,27.554 86.038,26.674 86.038,25.63 C 86.038,24.587 85.672,23.712 84.942,23.004 C 84.21,22.299 83.326,21.944 82.281,21.944 z M 111.149,37.526 C 106.023,37.526 102.128,39.787 99.462,44.309 L 99.324,44.309 L 99.324,38.395 L 93.62,38.395 L 93.62,74.01 L 99.324,74.01 L 99.324,53.698 C 99.324,50.428 100.257,47.727 102.124,45.594 C 103.99,43.461 106.348,42.393 109.202,42.393 C 114.721,42.393 117.478,46.162 117.478,53.698 L 117.478,74.011 L 123.184,74.011 L 123.184,52.203 C 123.184,47.518 122.158,43.903 120.104,41.352 C 118.051,38.802 115.067,37.526 111.149,37.526 z M 155.565,43.299 L 155.427,43.299 C 153.177,39.448 149.617,37.525 144.748,37.525 C 139.81,37.525 135.857,39.298 132.89,42.849 C 129.922,46.394 128.437,51.136 128.437,57.072 C 128.437,62.636 129.827,67.019 132.61,70.218 C 135.276,73.323 138.799,74.879 143.182,74.879 C 148.701,74.879 152.783,72.571 155.424,67.956 L 155.564,67.956 L 155.564,74.011 L 161.267,74.011 L 161.267,21.285 L 155.564,21.285 L 155.565,43.299 L 155.565,43.299 z M 155.565,57.907 C 155.565,61.338 154.614,64.188 152.715,66.463 C 150.696,68.827 148.064,70.011 144.819,70.011 C 141.76,70.011 139.278,68.919 137.377,66.741 C 135.313,64.375 134.28,61.049 134.28,56.761 C 134.28,52.261 135.278,48.741 137.274,46.203 C 139.268,43.664 142.003,42.393 145.481,42.393 C 148.425,42.393 150.86,43.414 152.785,45.455 C 154.639,47.401 155.566,49.804 155.566,52.653 L 155.565,57.907 L 155.565,57.907 z M 185.693,37.526 C 180.29,37.526 175.98,39.102 172.756,42.255 C 169.277,45.64 167.54,50.429 167.54,56.62 C 167.54,62.045 169.068,66.417 172.13,69.731 C 175.262,73.163 179.504,74.877 184.859,74.877 C 190.283,74.877 194.597,73.161 197.796,69.731 C 200.999,66.297 202.597,61.742 202.597,56.063 C 202.597,50.288 201.107,45.753 198.128,42.463 C 195.148,39.172 191.001,37.526 185.693,37.526 z M 193.868,66.358 C 191.895,68.792 189.032,70.01 185.275,70.01 C 181.659,70.01 178.772,68.809 176.618,66.409 C 174.461,64.01 173.382,60.676 173.382,56.408 C 173.382,51.863 174.508,48.351 176.756,45.87 C 178.891,43.553 181.729,42.392 185.276,42.392 C 188.871,42.392 191.666,43.538 193.659,45.835 C 195.723,48.224 196.754,51.701 196.754,56.269 C 196.753,60.631 195.792,63.993 193.868,66.358 z M 240.4,65.245 C 240.078,66.474 239.891,67.54 239.842,68.444 L 239.566,68.444 C 239.475,67.168 239.311,66.102 239.08,65.245 L 231.673,38.393 L 226.455,38.393 L 218.281,65.106 C 217.911,66.29 217.69,67.377 217.622,68.375 L 217.342,68.375 C 217.25,67.168 217.087,66.103 216.855,65.173 L 209.517,38.394 L 203.534,38.394 L 214.283,74.011 L 219.987,74.011 L 227.951,48.447 C 228.369,47.124 228.613,46.058 228.681,45.246 L 228.821,45.246 C 228.936,46.498 229.121,47.589 229.376,48.516 L 236.717,74.01 L 242.629,74.01 L 253.307,38.395 L 247.67,38.395 L 240.4,65.245 z M 267.432,54.013 C 264.721,52.853 262.934,51.867 262.077,51.056 C 261.126,50.173 260.649,48.945 260.649,47.368 C 260.649,45.909 261.217,44.716 262.352,43.787 C 263.491,42.859 265.004,42.396 266.91,42.396 C 269.949,42.396 272.636,43.242 274.975,44.935 L 274.975,39.197 C 272.729,38.084 270.19,37.527 267.36,37.527 C 263.673,37.527 260.66,38.508 258.319,40.465 C 255.977,42.425 254.803,44.888 254.803,47.857 C 254.803,50.502 255.557,52.646 257.065,54.292 C 258.319,55.684 260.44,57.027 263.43,58.326 C 266.329,59.601 268.276,60.689 269.274,61.596 C 270.268,62.5 270.768,63.649 270.768,65.041 C 270.768,68.354 268.507,70.014 263.985,70.014 C 260.6,70.014 257.518,68.877 254.733,66.606 L 254.733,72.727 C 257.237,74.164 260.184,74.883 263.567,74.883 C 267.698,74.883 270.956,73.839 273.341,71.753 C 275.522,69.826 276.61,67.404 276.61,64.482 C 276.61,61.837 275.74,59.661 274.003,57.945 C 272.657,56.597 270.467,55.286 267.432,54.013 z" id="path5"/><polygon points="292.838,23.292 292.838,26.595 320.314,26.595 299.931,74.772 303.23,74.772 325,23.292 292.838,23.292" id="polygon789"/></g>
<g id="Layer_2" transform="translate(-0.00109138, -0.778131)">
</g>
</svg>