<?xml version="1.0" encoding="UTF-8"?>
<!-- Generator: Adobe Illustrator 12.0.0, SVG Export Plug-In . SVG Version: 6.00 Build 51448)  -->
<!DOCTYPE svg PUBLIC "-//W3C//DTD SVG 1.1//EN" "http://www.w3.org/Graphics/SVG/1.1/DTD/svg11.dtd" [
	<!ENTITY ns_svg "http://www.w3.org/2000/svg">
	<!ENTITY ns_xlink "http://www.w3.org/1999/xlink">
]>
<svg version="1.1" id="Layer_1" xmlns="http://www.w3.org/2000/svg" xmlns:xlink="http://www.w3.org/1999/xlink" width="938.878" height="212.958" viewBox="0 0 938.878 212.958" overflow="visible" enable-background="new 0 0 938.878 212.958" xml:space="preserve">
<g>
	<g id="XMLID_22_">
		<path opacity="0" fill="#FFFFFF" d="M938.878,0v212.958H0V0H938.878z M922.824,69.062c1.504-2.701,2.241-5.525,2.241-8.456    c0-2.947-0.752-5.786-2.271-8.518c-1.52-2.732-3.638-4.834-6.354-6.292c-2.717-1.473-5.495-2.195-8.364-2.195    c-2.854,0-5.633,0.722-8.364,2.195c-2.717,1.458-4.835,3.561-6.354,6.292c-1.534,2.731-2.286,5.571-2.286,8.518    c0,2.931,0.736,5.755,2.24,8.456c1.504,2.701,3.606,4.804,6.308,6.308c2.701,1.488,5.51,2.24,8.457,2.24    c2.946,0,5.771-0.752,8.472-2.24C919.248,73.866,921.336,71.763,922.824,69.062z M880.113,162.772v-26.719h-2.395    c-0.521,1.795-1.166,3.054-1.964,3.745c-0.813,0.706-1.965,1.059-3.484,1.059h-66.314v-28.239l-22.515-0.031v37.447    c0,1.581-0.353,2.763-1.059,3.561c-0.706,0.813-1.949,1.474-3.745,1.964v2.41h93.633c1.52,0,2.671,0.338,3.484,1.043    c0.798,0.706,1.442,1.949,1.964,3.76H880.113z M878.317,76.583V49.848h-2.409c-0.507,1.78-1.151,3.023-1.965,3.745    c-0.798,0.706-1.964,1.074-3.468,1.074h-91.838v2.394c1.796,0.507,3.039,1.167,3.745,1.965c0.706,0.813,1.059,1.995,1.059,3.561    v33.426l22.515,0.077v-24.31h64.52c1.504,0,2.67,0.353,3.468,1.059c0.813,0.722,1.458,1.965,1.965,3.745H878.317z     M843.863,112.725V96.012h-18.907v16.713H843.863z M769.982,57.061v-2.394h-35.176v2.394c3.314,0.66,4.973,2.072,4.973,4.236    c0,1.412-0.568,3.407-1.72,5.985l-27.671,61.005l-27.241-61.005c-1.166-2.578-1.749-4.573-1.749-5.985    c0-1.074,0.414-1.979,1.259-2.686c0.828-0.706,2.071-1.212,3.744-1.55v-2.394h-36.817v2.394c2.225,0.307,3.76,0.937,4.619,1.903    c0.414,0.476,1.013,1.412,1.75,2.793c0.752,1.381,1.657,3.223,2.716,5.525l35.774,77.273c1.504,3.285,2.256,5.402,2.256,6.369    c0,1.32-0.398,2.348-1.182,3.116c-0.798,0.783-1.979,1.274-3.576,1.504v2.394h35.575v-2.394c-3.177-0.46-4.773-1.964-4.773-4.543    c0-1.013,0.768-3.161,2.287-6.446l35.851-77.273c2.118-4.588,3.622-7.366,4.481-8.318    C766.222,57.997,767.772,57.368,769.982,57.061z M640.836,157.938v-2.394c-1.75-0.46-2.993-1.105-3.714-1.934    c-0.722-0.829-1.09-2.026-1.09-3.591v-87.51c0-1.504,0.353-2.686,1.059-3.514c0.69-0.844,1.949-1.474,3.745-1.934v-2.394h-32.122    v2.394c1.795,0.507,3.054,1.167,3.76,1.965c0.691,0.813,1.044,1.979,1.044,3.483v87.51c0,1.565-0.353,2.747-1.044,3.561    c-0.706,0.798-1.964,1.458-3.76,1.964v2.394H640.836z M598.478,76.583V49.848h-2.409c-0.491,1.826-1.151,3.084-1.965,3.775    c-0.798,0.69-1.979,1.043-3.545,1.043h-86.62c-1.504,0-2.655-0.353-3.438-1.043c-0.783-0.691-1.443-1.949-2.011-3.775h-2.394    v26.735h2.394c0.507-1.842,1.167-3.1,1.965-3.775c0.813-0.691,1.979-1.028,3.483-1.028h32.091v78.24    c0,1.565-0.353,2.747-1.059,3.561c-0.706,0.798-1.949,1.458-3.745,1.964v2.394h32.122v-2.394    c-1.796-0.506-3.054-1.167-3.745-1.964c-0.706-0.813-1.059-1.995-1.059-3.561v-78.24h32.014c1.565,0,2.747,0.337,3.545,1.028    c0.813,0.675,1.474,1.934,1.965,3.775H598.478z M506.717,157.938v-2.394c-2.118-0.399-3.806-1.228-5.08-2.456    c-1.259-1.243-2.717-3.545-4.374-6.937L443.502,30.848l-54.636,116.669c-1.366,2.931-2.578,4.896-3.637,5.909    c-1.059,1.013-2.594,1.719-4.62,2.118v2.394h34.224v-2.394c-1.704-0.43-2.977-1.028-3.837-1.811    c-0.844-0.767-1.273-1.704-1.273-2.824c0-1.167,0.476-2.763,1.442-4.789l30.648-65.425l30.326,65.425    c1.013,2.072,1.52,3.638,1.52,4.712c0,2.578-1.704,4.159-5.08,4.711v2.394H506.717z M501.606,191.364v-19.645H385.75v19.645    H501.606z M373.043,162.772v-26.719h-2.395c-0.521,1.795-1.166,3.054-1.979,3.745c-0.798,0.706-1.949,1.059-3.469,1.059h-66.315    v-28.239l-22.514-0.031v37.447c0,1.581-0.353,2.763-1.059,3.561c-0.706,0.813-1.949,1.474-3.745,1.964v2.41h93.633    c1.52,0,2.67,0.338,3.469,1.043c0.813,0.706,1.458,1.949,1.979,3.76H373.043z M371.248,76.583V49.848h-2.409    c-0.507,1.78-1.151,3.023-1.965,3.745c-0.813,0.706-1.964,1.074-3.468,1.074h-91.837v2.394c1.795,0.507,3.039,1.167,3.745,1.965    c0.706,0.813,1.059,1.995,1.059,3.561v33.426l22.514,0.077v-24.31h64.52c1.504,0,2.655,0.353,3.468,1.059    c0.813,0.722,1.458,1.965,1.965,3.745H371.248z M336.793,112.725V96.012h-18.908v16.713H336.793z M259.121,157.938v-2.394    c-2.363-0.153-4.374-0.952-6-2.379c-1.642-1.442-4.236-4.65-7.766-9.623l-20.028-28.53c9.362-1.443,16.391-4.635,21.072-9.562    c4.681-4.941,7.029-11.618,7.029-20.059c0-4.942-0.937-9.577-2.809-13.92c-1.964-4.497-4.942-8.057-8.932-10.682    c-3.438-2.271-7.459-3.852-12.078-4.773c-4.62-0.905-10.851-1.351-18.739-1.351h-64.642v2.394c1.811,0.507,3.054,1.167,3.76,1.965    c0.706,0.813,1.043,1.995,1.043,3.561v87.509c0,1.52-0.337,2.67-1.043,3.484c-0.706,0.798-1.949,1.458-3.76,1.964v2.394h32.137    v-2.394c-1.765-0.46-3.008-1.105-3.714-1.918c-0.736-0.844-1.089-2.01-1.089-3.53V71.779h34.838c2.625,0,4.85,0.031,6.676,0.107    c1.826,0.061,3.253,0.168,4.266,0.307c2.057,0.276,3.99,0.921,5.801,1.918c3.837,2.057,5.755,5.786,5.755,11.173    s-1.918,9.116-5.755,11.173c-1.765,0.951-3.714,1.581-5.832,1.888c-2.118,0.292-25.2,0.445-30.357,0.445l33.365,47.469    c2.363,3.469,3.53,5.663,3.53,6.569c0,1.412-1.274,2.317-3.821,2.716v2.394H259.121z M116.27,90.026l14.334-21.563l-1.964-1.351    c-1.412,1.304-2.563,1.964-3.468,1.964s-3.453-1.182-7.643-3.545c-8.778-5.034-16.083-8.41-21.931-10.114    c-5.832-1.704-12.845-2.563-20.995-2.563c-22.238,0-38.844,6.937-49.817,20.811c-7.321,9.224-10.973,20.089-10.973,32.597    c0,9.178,2.041,17.573,6.124,25.185c3.53,6.661,8.364,12.232,14.518,16.729c10.437,7.704,23.788,11.572,40.056,11.572    c8.165,0,15.209-0.875,21.133-2.625c5.924-1.734,13.214-5.11,21.885-10.114c4.19-2.425,6.738-3.637,7.643-3.637    s2.057,0.66,3.468,1.98l1.964-1.366l-14.334-21.409l-2.041,1.443c0.092,0.767,0.153,1.412,0.153,1.964    c0,1.473-0.629,2.839-1.888,4.128s-3.499,2.839-6.722,4.65c-8.917,5.049-18.34,7.566-28.315,7.566    c-11.771,0-21.148-2.947-28.146-8.871c-8.257-6.922-12.385-15.977-12.385-27.165c0-11.173,4.128-20.228,12.385-27.149    c6.998-5.909,16.375-8.871,28.146-8.871c9.976,0,19.399,2.517,28.315,7.566c3.223,1.826,5.464,3.376,6.722,4.666    c1.258,1.274,1.888,2.655,1.888,4.113c0,0.553-0.062,1.243-0.153,2.057L116.27,90.026z"/>
		<path fill="#009BDC" d="M925.065,60.606c0,2.931-0.737,5.755-2.241,8.456c-1.488,2.701-3.576,4.804-6.276,6.308    c-2.701,1.488-5.525,2.24-8.472,2.24c-2.947,0-5.756-0.752-8.457-2.24c-2.701-1.504-4.804-3.607-6.308-6.308    c-1.504-2.701-2.24-5.525-2.24-8.456c0-2.947,0.752-5.786,2.286-8.518c1.52-2.732,3.638-4.834,6.354-6.292    c2.731-1.473,5.51-2.195,8.364-2.195c2.869,0,5.647,0.722,8.364,2.195c2.716,1.458,4.834,3.561,6.354,6.292    C924.313,54.82,925.065,57.659,925.065,60.606z M920.415,67.681c1.259-2.256,1.872-4.604,1.872-7.075s-0.629-4.834-1.903-7.121    c-1.273-2.287-3.038-4.036-5.325-5.264c-2.271-1.228-4.604-1.842-6.982-1.842c-2.395,0-4.728,0.614-6.983,1.842    c-2.271,1.228-4.052,2.978-5.325,5.264c-1.289,2.287-1.919,4.65-1.919,7.121s0.63,4.819,1.888,7.075    c1.259,2.256,3.009,4.005,5.279,5.264c2.257,1.259,4.604,1.888,7.061,1.888c2.455,0,4.818-0.629,7.074-1.888    C917.422,71.687,919.172,69.937,920.415,67.681z"/>
		<path fill="#FFFFFF" d="M922.287,60.606c0,2.471-0.613,4.819-1.872,7.075c-1.243,2.256-2.993,4.005-5.265,5.264    c-2.256,1.259-4.619,1.888-7.074,1.888c-2.456,0-4.804-0.629-7.061-1.888c-2.271-1.258-4.021-3.008-5.279-5.264    c-1.258-2.256-1.888-4.604-1.888-7.075s0.63-4.834,1.919-7.121c1.273-2.287,3.054-4.036,5.325-5.264    c2.256-1.228,4.589-1.842,6.983-1.842c2.379,0,4.711,0.614,6.982,1.842c2.287,1.228,4.052,2.978,5.325,5.264    C921.658,55.771,922.287,58.135,922.287,60.606z M915.995,70.014l-2.241-3.545c-1.074-1.688-1.979-2.885-2.716-3.591    c-0.384-0.369-0.921-0.691-1.565-0.952c1.611-0.123,2.9-0.69,3.867-1.688c0.951-0.998,1.442-2.18,1.442-3.53    c0-0.952-0.276-1.857-0.859-2.701c-0.567-0.844-1.335-1.443-2.302-1.796c-0.967-0.337-2.532-0.506-4.696-0.506h-6.323v18.309    h2.932v-7.72h1.734c1.043,0.016,1.842,0.23,2.379,0.66c0.767,0.568,1.78,1.98,3.069,4.205l1.657,2.854H915.995z"/>
		<path fill="#009BDC" d="M913.754,66.469l2.241,3.545h-3.622l-1.657-2.854c-1.289-2.225-2.303-3.637-3.069-4.205    c-0.537-0.43-1.336-0.645-2.379-0.66h-1.734v7.72h-2.932V51.705h6.323c2.164,0,3.729,0.169,4.696,0.506    c0.967,0.353,1.734,0.952,2.302,1.796c0.583,0.844,0.859,1.75,0.859,2.701c0,1.35-0.491,2.532-1.442,3.53    c-0.967,0.998-2.256,1.565-3.867,1.688c0.645,0.261,1.182,0.583,1.565,0.952C911.774,63.583,912.68,64.78,913.754,66.469z     M911.713,56.923c0-0.538-0.153-1.028-0.46-1.458c-0.308-0.43-0.737-0.752-1.289-0.967c-0.537-0.199-1.535-0.307-3.009-0.307    h-3.422v5.54h3.652c1.75,0,2.932-0.245,3.576-0.767C911.391,58.458,911.713,57.767,911.713,56.923z"/>
		<path fill="#FFFFFF" d="M911.253,55.465c0.307,0.43,0.46,0.92,0.46,1.458c0,0.844-0.322,1.535-0.951,2.041    c-0.645,0.522-1.826,0.767-3.576,0.767h-3.652v-5.54h3.422c1.474,0,2.472,0.107,3.009,0.307    C910.516,54.712,910.945,55.035,911.253,55.465z"/>
		<path fill="#009BDC" d="M880.113,136.053v26.719h-2.395c-0.521-1.811-1.166-3.054-1.964-3.76    c-0.813-0.706-1.965-1.043-3.484-1.043h-93.633v-2.41c1.796-0.491,3.039-1.151,3.745-1.964c0.706-0.798,1.059-1.979,1.059-3.561    v-37.447l22.515,0.031v28.239h66.314c1.52,0,2.671-0.353,3.484-1.059c0.798-0.691,1.442-1.949,1.964-3.745H880.113z"/>
		<path fill="#009BDC" d="M878.317,49.848v26.735h-2.409c-0.507-1.78-1.151-3.023-1.965-3.745c-0.798-0.706-1.964-1.059-3.468-1.059    h-64.52v24.31l-22.515-0.077V62.586c0-1.565-0.353-2.748-1.059-3.561c-0.706-0.798-1.949-1.458-3.745-1.965v-2.394h91.838    c1.504,0,2.67-0.368,3.468-1.074c0.813-0.721,1.458-1.964,1.965-3.745H878.317z"/>
		<rect x="824.956" y="96.012" fill="#009BDC" width="18.907" height="16.713"/>
		<path fill="#009BDC" d="M769.982,54.667v2.394c-2.21,0.307-3.761,0.937-4.62,1.903c-0.859,0.952-2.363,3.729-4.481,8.318    l-35.851,77.273c-1.52,3.285-2.287,5.433-2.287,6.446c0,2.579,1.597,4.083,4.773,4.543v2.394h-35.575v-2.394    c1.597-0.23,2.778-0.721,3.576-1.504c0.783-0.768,1.182-1.796,1.182-3.116c0-0.967-0.752-3.084-2.256-6.369l-35.774-77.273    c-1.059-2.302-1.964-4.144-2.716-5.525c-0.737-1.381-1.336-2.317-1.75-2.793c-0.859-0.967-2.395-1.596-4.619-1.903v-2.394h36.817    v2.394c-1.673,0.338-2.916,0.844-3.744,1.55c-0.845,0.706-1.259,1.611-1.259,2.686c0,1.412,0.583,3.407,1.749,5.985l27.241,61.005    l27.671-61.005c1.151-2.578,1.72-4.573,1.72-5.985c0-2.164-1.658-3.576-4.973-4.236v-2.394H769.982z"/>
		<path fill="#009BDC" d="M640.836,155.543v2.394h-32.122v-2.394c1.795-0.506,3.054-1.167,3.76-1.964    c0.691-0.813,1.044-1.995,1.044-3.561v-87.51c0-1.504-0.353-2.67-1.044-3.483c-0.706-0.798-1.964-1.458-3.76-1.965v-2.394h32.122    v2.394c-1.796,0.46-3.055,1.09-3.745,1.934c-0.706,0.829-1.059,2.01-1.059,3.514v87.51c0,1.565,0.368,2.762,1.09,3.591    C637.843,154.438,639.086,155.083,640.836,155.543z"/>
		<path fill="#009BDC" d="M598.478,49.848v26.735h-2.409c-0.491-1.842-1.151-3.1-1.965-3.775c-0.798-0.691-1.979-1.028-3.545-1.028    h-32.014v78.24c0,1.565,0.353,2.747,1.059,3.561c0.69,0.798,1.949,1.458,3.745,1.964v2.394h-32.122v-2.394    c1.795-0.506,3.039-1.167,3.745-1.964c0.706-0.813,1.059-1.995,1.059-3.561v-78.24h-32.091c-1.504,0-2.67,0.337-3.483,1.028    c-0.798,0.675-1.458,1.934-1.965,3.775h-2.394V49.848h2.394c0.568,1.826,1.228,3.084,2.011,3.775    c0.783,0.69,1.934,1.043,3.438,1.043h86.62c1.565,0,2.747-0.353,3.545-1.043c0.813-0.691,1.474-1.949,1.965-3.775H598.478z"/>
		<path fill="#F3AA56" d="M506.717,155.543v2.394h-38.138v-2.394c3.376-0.553,5.08-2.133,5.08-4.711c0-1.074-0.506-2.64-1.52-4.712    l-30.326-65.425l-30.648,65.425c-0.967,2.026-1.442,3.622-1.442,4.789c0,1.12,0.43,2.057,1.273,2.824    c0.86,0.783,2.133,1.381,3.837,1.811v2.394h-34.224v-2.394c2.026-0.399,3.561-1.105,4.62-2.118    c1.059-1.013,2.271-2.978,3.637-5.909l54.636-116.669l53.761,115.303c1.657,3.392,3.115,5.694,4.374,6.937    C502.911,154.316,504.599,155.145,506.717,155.543z"/>
		<rect x="385.75" y="171.719" fill="#009BDC" width="115.856" height="19.645"/>
		<path fill="#009BDC" d="M373.043,136.053v26.719h-2.395c-0.521-1.811-1.166-3.054-1.979-3.76    c-0.798-0.706-1.949-1.043-3.469-1.043h-93.633v-2.41c1.795-0.491,3.039-1.151,3.745-1.964c0.706-0.798,1.059-1.979,1.059-3.561    v-37.447l22.514,0.031v28.239h66.315c1.52,0,2.67-0.353,3.469-1.059c0.813-0.691,1.458-1.949,1.979-3.745H373.043z"/>
		<path fill="#009BDC" d="M371.248,49.848v26.735h-2.409c-0.507-1.78-1.151-3.023-1.965-3.745c-0.813-0.706-1.964-1.059-3.468-1.059    h-64.52v24.31l-22.514-0.077V62.586c0-1.565-0.353-2.748-1.059-3.561c-0.706-0.798-1.949-1.458-3.745-1.965v-2.394h91.837    c1.504,0,2.655-0.368,3.468-1.074c0.813-0.721,1.458-1.964,1.965-3.745H371.248z"/>
		<rect x="317.886" y="96.012" fill="#009BDC" width="18.908" height="16.713"/>
		<path fill="#009BDC" d="M259.121,155.543v2.394h-37.094v-2.394c2.547-0.399,3.821-1.305,3.821-2.716c0-0.906-1.167-3.1-3.53-6.569    L188.954,98.79c5.157,0,28.239-0.153,30.357-0.445c2.118-0.307,4.067-0.937,5.832-1.888c3.837-2.057,5.755-5.786,5.755-11.173    s-1.918-9.116-5.755-11.173c-1.811-0.998-3.745-1.642-5.801-1.918c-1.013-0.138-2.44-0.246-4.266-0.307    c-1.827-0.077-4.052-0.107-6.676-0.107h-34.838v78.316c0,1.52,0.353,2.686,1.089,3.53c0.706,0.813,1.949,1.458,3.714,1.918v2.394    h-32.137v-2.394c1.811-0.506,3.054-1.167,3.76-1.964c0.706-0.813,1.043-1.964,1.043-3.484V62.586c0-1.565-0.337-2.748-1.043-3.561    c-0.706-0.798-1.949-1.458-3.76-1.965v-2.394h64.642c7.889,0,14.12,0.445,18.739,1.351c4.619,0.921,8.64,2.501,12.078,4.773    c3.99,2.625,6.968,6.185,8.932,10.682c1.872,4.343,2.809,8.978,2.809,13.92c0,8.441-2.348,15.117-7.029,20.059    c-4.681,4.927-11.71,8.119-21.072,9.562l20.028,28.53c3.53,4.973,6.124,8.18,7.766,9.623    C254.748,154.592,256.758,155.39,259.121,155.543z"/>
		<path fill="#009BDC" d="M130.604,68.464L116.27,90.026l-2.041-1.351c0.092-0.813,0.153-1.504,0.153-2.057    c0-1.458-0.629-2.839-1.888-4.113c-1.258-1.289-3.499-2.839-6.722-4.666c-8.917-5.049-18.34-7.566-28.315-7.566    c-11.771,0-21.148,2.962-28.146,8.871c-8.257,6.921-12.385,15.976-12.385,27.149c0,11.188,4.128,20.243,12.385,27.165    c6.998,5.924,16.375,8.871,28.146,8.871c9.976,0,19.399-2.517,28.315-7.566c3.223-1.811,5.464-3.361,6.722-4.65    s1.888-2.655,1.888-4.128c0-0.553-0.062-1.197-0.153-1.964l2.041-1.443l14.334,21.409l-1.964,1.366    c-1.412-1.32-2.563-1.98-3.468-1.98s-3.453,1.212-7.643,3.637c-8.671,5.003-15.961,8.38-21.885,10.114    c-5.924,1.75-12.968,2.625-21.133,2.625c-16.268,0-29.62-3.868-40.056-11.572c-6.154-4.497-10.988-10.068-14.518-16.729    c-4.083-7.612-6.124-16.007-6.124-25.185c0-12.508,3.652-23.374,10.973-32.597c10.973-13.874,27.579-20.811,49.817-20.811    c8.149,0,15.163,0.859,20.995,2.563c5.848,1.704,13.153,5.08,21.931,10.114c4.19,2.364,6.738,3.545,7.643,3.545    s2.057-0.66,3.468-1.964L130.604,68.464z"/>
	</g>
</g>
</svg>