<?xml version="1.0" encoding="UTF-8" standalone="no"?>
<!-- Created with Inkscape (http://www.inkscape.org/) -->

<svg
   xmlns:dc="http://purl.org/dc/elements/1.1/"
   xmlns:cc="http://creativecommons.org/ns#"
   xmlns:rdf="http://www.w3.org/1999/02/22-rdf-syntax-ns#"
   xmlns:svg="http://www.w3.org/2000/svg"
   xmlns="http://www.w3.org/2000/svg"
   xmlns:xlink="http://www.w3.org/1999/xlink"
   xmlns:sodipodi="http://sodipodi.sourceforge.net/DTD/sodipodi-0.dtd"
   xmlns:inkscape="http://www.inkscape.org/namespaces/inkscape"
   sodipodi:docname="driver.svg"
   inkscape:version="0.47 r22583"
   sodipodi:version="0.32"
   id="svg2963"
   height="43.590576"
   width="46.172829"
   inkscape:output_extension="org.inkscape.output.svg.inkscape"
   version="1.1"
   inkscape:export-filename="/home/kalessin/projs/rathaxes/epitech/2012/final_defense_tek4/medias/driver.png"
   inkscape:export-xdpi="350.19"
   inkscape:export-ydpi="350.19">
  <sodipodi:namedview
     inkscape:window-y="17"
     inkscape:window-x="1680"
     inkscape:window-height="1421"
     inkscape:window-width="2556"
     stroke="#c17d11"
     fill="#e9b96e"
     inkscape:showpageshadow="false"
     inkscape:document-units="px"
     inkscape:grid-bbox="true"
     showgrid="true"
     inkscape:current-layer="layer1"
     inkscape:cy="18.793804"
     inkscape:cx="-2.8483797"
     inkscape:zoom="7.9999995"
     inkscape:pageshadow="2"
     inkscape:pageopacity="0.0"
     borderopacity="1"
     bordercolor="#000000"
     pagecolor="#ffffff"
     id="base"
     showguides="false"
     inkscape:window-maximized="0" />
  <defs
     id="defs3">
    <inkscape:perspective
       sodipodi:type="inkscape:persp3d"
       inkscape:vp_x="0 : 24 : 1"
       inkscape:vp_y="0 : 1000 : 0"
       inkscape:vp_z="48 : 24 : 1"
       inkscape:persp3d-origin="24 : 16 : 1"
       id="perspective60" />
    <linearGradient
       id="linearGradient3640">
      <stop
         offset="0"
         id="stop3642"
         style="stop-color:#ffffff;stop-opacity:1;" />
      <stop
         offset="1"
         id="stop3644"
         style="stop-color:#9dd9e3;stop-opacity:1;" />
    </linearGradient>
    <linearGradient
       id="linearGradient3609">
      <stop
         offset="0"
         id="stop3611"
         style="stop-color:#0981af;stop-opacity:1;" />
      <stop
         offset="0.5"
         id="stop3613"
         style="stop-color:#1b94c2;stop-opacity:1;" />
      <stop
         offset="1"
         id="stop3615"
         style="stop-color:#9fe1d7;stop-opacity:1;" />
    </linearGradient>
    <filter
       inkscape:collect="always"
       id="filter4404"
       x="-0.11074279"
       y="-0.096294351"
       width="1.2214856"
       height="1.1925887"
       color-interpolation-filters="sRGB">
      <feGaussianBlur
         inkscape:collect="always"
         id="feGaussianBlur4406"
         stdDeviation="1.7736621" />
    </filter>
    <linearGradient
       inkscape:collect="always"
       id="linearGradient4310-914"
       y2="15.951456"
       y1="38.413868"
       gradientTransform="matrix(0.8727474,0,0,0.851129,2.2224174,3.7823659)"
       x2="8.1178246"
       gradientUnits="userSpaceOnUse"
       xlink:href="#linearGradient3609"
       x1="24.391657" />
    <radialGradient
       inkscape:collect="always"
       id="radialGradient4314-206"
       r="14.028825"
       gradientTransform="matrix(-1.8091303,-0.05266938,0.01543555,-0.7340256,100.47139,26.662126)"
       cx="36.033974"
       cy="13.925887"
       gradientUnits="userSpaceOnUse"
       xlink:href="#linearGradient3609"
       fy="13.925887"
       fx="36.033974" />
    <radialGradient
       inkscape:collect="always"
       id="radialGradient4316-792"
       r="4.9652834"
       gradientTransform="matrix(-0.07571404,-2.0310395,2.7424657,-0.07384507,-39.06795,105.19419)"
       cx="36.542522"
       cy="28.888735"
       gradientUnits="userSpaceOnUse"
       xlink:href="#linearGradient4223-299"
       fy="28.888735"
       fx="36.542522" />
    <linearGradient
       id="linearGradient4223-299">
      <stop
         offset="0"
         id="stop2733"
         style="stop-color:#ffffff;stop-opacity:1;" />
      <stop
         offset="1"
         id="stop2735"
         style="stop-color:#ffffff;stop-opacity:0.59793812;" />
    </linearGradient>
    <linearGradient
       inkscape:collect="always"
       id="linearGradient3438"
       x1="24.356001"
       y1="21.967142"
       x2="47.250107"
       gradientUnits="userSpaceOnUse"
       xlink:href="#linearGradient3609"
       y2="37.581001" />
    <radialGradient
       inkscape:collect="always"
       id="radialGradient22106"
       r="18.91659"
       gradientTransform="matrix(0.8239569,1.4322914,-0.8062307,0.6479042,-1.2680376,7.1258833)"
       cx="-5.9464235"
       cy="-0.2743766"
       gradientUnits="userSpaceOnUse"
       xlink:href="#linearGradient3640"
       fy="-0.2743766"
       fx="-5.9464235" />
    <filter
       inkscape:collect="always"
       id="filter22146"
       x="-0.26424834"
       y="-0.25452682"
       width="1.5284967"
       height="1.5090536"
       color-interpolation-filters="sRGB">
      <feGaussianBlur
         inkscape:collect="always"
         id="feGaussianBlur22148"
         stdDeviation="2.8027769" />
    </filter>
    <linearGradient
       id="linearGradient3665">
      <stop
         id="stop3667"
         offset="0"
         style="stop-color:#d4dfe1;stop-opacity:1;" />
      <stop
         id="stop3669"
         offset="1"
         style="stop-color:#939ea3;stop-opacity:1;" />
    </linearGradient>
    <linearGradient
       id="linearGradient3617">
      <stop
         style="stop-color:#ffffff;stop-opacity:1;"
         offset="0"
         id="stop3619" />
      <stop
         style="stop-color:#ffffff;stop-opacity:0;"
         offset="1"
         id="stop3621" />
    </linearGradient>
    <linearGradient
       id="linearGradient3187">
      <stop
         id="stop3189"
         offset="0"
         style="stop-color:#000000;stop-opacity:1;" />
      <stop
         id="stop3191"
         offset="1"
         style="stop-color:#ffffff;stop-opacity:0;" />
    </linearGradient>
    <radialGradient
       inkscape:collect="always"
       xlink:href="#linearGradient3187"
       id="radialGradient2435"
       gradientUnits="userSpaceOnUse"
       gradientTransform="matrix(1,0,0,0.1821842,0,36.597257)"
       cx="25.375"
       cy="44.75"
       fx="22.719242"
       fy="44.75"
       r="15.896" />
    <linearGradient
       inkscape:collect="always"
       xlink:href="#linearGradient3617"
       id="linearGradient2444"
       gradientUnits="userSpaceOnUse"
       gradientTransform="matrix(-0.6834483,-0.0926351,0.0926351,-0.6834483,-92.413704,-35.15571)"
       x1="-152.91451"
       y1="-54"
       x2="-182.58549"
       y2="-85" />
    <linearGradient
       inkscape:collect="always"
       xlink:href="#linearGradient3617"
       id="linearGradient2447"
       gradientUnits="userSpaceOnUse"
       gradientTransform="matrix(-0.6834483,-0.09263514,0.09263514,-0.6834483,-92.413715,-35.155718)"
       x1="-152.91451"
       y1="-54"
       x2="-182.58549"
       y2="-85" />
    <linearGradient
       inkscape:collect="always"
       xlink:href="#linearGradient3665"
       id="linearGradient2452"
       gradientUnits="userSpaceOnUse"
       gradientTransform="matrix(-0.6834484,-0.09263514,0.09263514,-0.6834484,-92.413727,-35.155722)"
       x1="-183.02715"
       y1="-86.902374"
       x2="-152.43022"
       y2="-59.80838" />
  </defs>
  <metadata
     id="metadata4">
    <rdf:RDF>
      <cc:Work
         rdf:about="">
        <dc:format>image/svg+xml</dc:format>
        <dc:type
           rdf:resource="http://purl.org/dc/dcmitype/StillImage" />
        <dc:title />
        <dc:creator>
          <cc:Agent>
            <dc:title>Marco Tessarotto</dc:title>
          </cc:Agent>
        </dc:creator>
        <dc:source />
        <dc:subject>
          <rdf:Bag />
        </dc:subject>
        <cc:license
           rdf:resource="http://creativecommons.org/licenses/GPL/2.0/" />
      </cc:Work>
    </rdf:RDF>
  </metadata>
  <g
     inkscape:groupmode="layer"
     id="layer2"
     inkscape:label="shadow"
     style="display:inline"
     transform="translate(-0.491394,-1.2643296)">
    <path
       sodipodi:sides="6"
       id="path2201"
       inkscape:rounded="0"
       sodipodi:cx="12.020816"
       sodipodi:cy="8.2252417"
       inkscape:randomized="0"
       sodipodi:arg1="1.5707963"
       sodipodi:arg2="2.0943951"
       transform="matrix(0.9692843,0,0,0.8200909,16.661187,12.454564)"
       inkscape:flatsided="true"
       sodipodi:r1="21.504543"
       d="m 12.020816,29.729785 -18.6234807,-10.752271 -5e-7,-21.5045435 18.6234802,-10.7522725 18.623481,10.7522715 1e-6,21.5045435 -18.623481,10.752272 z"
       sodipodi:type="star"
       style="color:#000000;fill:url(#radialGradient22106);fill-opacity:1;fill-rule:nonzero;stroke:#000000;stroke-width:0.67296839;stroke-linecap:round;stroke-linejoin:round;stroke-miterlimit:5.4000001;stroke-opacity:1;stroke-dasharray:none;stroke-dashoffset:0;marker:none;visibility:visible;display:inline;overflow:visible;enable-background:accumulate"
       sodipodi:r2="18.62348" />
    <path
       d="m 37.034719,22.588348 c 0,7.297924 -5.698485,13.214059 -12.727922,13.214059 -7.029437,0 -12.727922,-5.916135 -12.727922,-13.214059 0,-7.297923 5.698485,-13.2140585 12.727922,-13.2140585 7.026339,0 12.72354,5.9111165 12.72792,13.2058215"
       id="path22108"
       sodipodi:end="6.2825619"
       sodipodi:cx="24.306797"
       sodipodi:cy="22.588348"
       transform="matrix(0.8492773,0,0,0.8492773,7.5587948,0.05377098)"
       sodipodi:open="true"
       sodipodi:start="0"
       sodipodi:type="arc"
       style="color:#000000;fill:#ffffff;fill-opacity:1;fill-rule:evenodd;stroke:none;stroke-width:0.57599998;marker:none;visibility:visible;display:inline;overflow:visible;filter:url(#filter22146);enable-background:accumulate"
       sodipodi:ry="13.214059"
       sodipodi:rx="12.727922" />
  </g>
  <g
     inkscape:groupmode="layer"
     id="layer1"
     inkscape:label="add"
     style="display:inline"
     transform="translate(-0.491394,-1.2643296)">
    <g
       transform="matrix(1.0246148,0,0,1.0246148,3.8908826,-3.7576375)"
       id="g4298">
      <path
         d="M 9.2048108,15.013624 9.263372,30.738868 23.389597,38.974891 23.660131,23.882842 9.2048108,15.013624 z"
         id="path4051"
         transform="matrix(1.1549315,0,0,0.9815613,-3.6575407,0.1072386)"
         style="fill:url(#linearGradient4310-914);fill-opacity:1;fill-rule:evenodd;stroke:none"
         sodipodi:nodetypes="ccccc" />
      <path
         d="M 38.282528,15.30664 38.304505,30.930516 24.442896,38.894557 24.56637,23.631068 38.282528,15.30664 z"
         id="path4053"
         transform="matrix(1.1549315,0,0,0.9815613,-3.6575407,0.1072386)"
         style="fill:url(#linearGradient3438);fill-opacity:1;fill-rule:evenodd;stroke:#000000;stroke-width:0.26350114;stroke-linecap:butt;stroke-linejoin:miter;stroke-miterlimit:4;stroke-opacity:0;stroke-dasharray:none"
         sodipodi:nodetypes="ccccc" />
      <path
         d="m 17.619661,19.080931 13.76802,-8.494043 6.539148,3.898235 -13.960725,8.568346 -6.346443,-3.972538 z M 30.614258,10.195582 16.901979,18.553153 9.9914183,14.195344 23.728011,6.4474934 30.614258,10.195582 z"
         id="path4055"
         transform="matrix(1.1549315,0,0,0.9815613,-3.6575407,0.1072386)"
         style="fill:url(#radialGradient4314-206);fill-opacity:1;fill-rule:evenodd;stroke:none"
         sodipodi:nodetypes="cccccccccc" />
      <path
         d="M 7.7210582,16.480227 7.5876367,29.766182 C 15.628547,32.091936 20.262073,27.947689 22.512792,24.107731 L 7.7210582,16.480227 z"
         id="path4171"
         style="opacity:0.22727272;fill:#ffffff;fill-opacity:1;fill-rule:evenodd;stroke:none"
         sodipodi:nodetypes="cccc" />
      <path
         d="m 25.456353,36.989479 c 0.299685,-8.515083 6.225089,-16.223669 13.70695,-20.149347 l 0.292194,13.137616 -13.999144,7.011731 z"
         id="path4173"
         style="opacity:0.17171715;fill:url(#radialGradient4316-792);fill-opacity:1;fill-rule:evenodd;stroke:none"
         sodipodi:nodetypes="cccc" />
      <path
         d="M 9.3665862,14.030485 23.731249,21.65524 c 6.390372,-4.755425 2.852348,-10.788643 0.06483,-14.3652061 L 9.3665862,14.030485 z"
         id="path4244"
         style="opacity:0.22727272;fill:#ffffff;fill-opacity:1;fill-rule:evenodd;stroke:none"
         sodipodi:nodetypes="cccc" />
    </g>
    <g
       transform="matrix(0.09748876,0,0,0.09748876,19.439482,29.589796)"
       id="g3848"
       style="opacity:0.12121211" />
    <g
       id="g2912"
       transform="matrix(0.09748876,0,0,0.09748876,-30.175076,27.974865)"
       style="opacity:0.12121211" />
    <g
       transform="matrix(0.09748876,0,0,0.09748876,22.56754,66.257221)"
       id="g2730"
       style="opacity:0.12121211" />
    <path
       id="path4450"
       d="m 13.729759,44.472194 c 0.608494,0.08248 1.195454,0.123985 1.79452,0.132712 l 0.960702,-3.826356 c 1.44357,-0.09455 2.81685,-0.456497 4.07825,-1.060804 l 2.730909,2.845769 c 1.055225,-0.617322 2.032388,-1.36123 2.908336,-2.214044 l -2.01615,-3.389899 c 0.918285,-1.055025 1.654425,-2.279466 2.12983,-3.645787 l 3.922328,0.08956 c 0.151065,-0.579776 0.288989,-1.153648 0.371467,-1.762157 0.08249,-0.608512 0.105219,-1.220101 0.113948,-1.819167 l -3.80465,-0.95776 c -0.09454,-1.443575 -0.478201,-2.819794 -1.08251,-4.081191 l 2.84577,-2.73091 C 28.06519,20.99695 27.321277,20.01977 26.468465,19.143825 l -3.389898,2.016149 c -1.05502,-0.918275 -2.282406,-1.632716 -3.64873,-2.108125 l 0.08956,-3.922327 c -0.579789,-0.151053 -1.153651,-0.28899 -1.762159,-0.371467 -0.608523,-0.08248 -1.2201,-0.105222 -1.819165,-0.113949 l -0.957761,3.804651 c -1.443585,0.09455 -2.81685,0.456497 -4.078249,1.060804 L 8.1928589,16.666733 C 7.137634,17.284064 6.1387664,18.025022 5.2628185,18.877835 l 2.0378546,3.392841 c -0.9182858,1.055025 -1.6544244,2.279465 -2.1298303,3.645787 l -3.9223275,-0.08956 c -0.1510642,0.579768 -0.29193085,1.175353 -0.37440878,1.783863 -0.0813325,0.602788 -0.12375432,1.201013 -0.13271195,1.794519 l 3.82635603,0.960703 c 0.095265,1.442965 0.477963,2.82052 1.082509,4.08119 L 2.7581383,37.19391 c 0.6166789,1.054184 1.4086565,2.017236 2.2603956,2.892513 l 3.368194,-2.019091 c 1.0548252,0.917651 2.2828841,1.633033 3.6487291,2.108125 l -0.0925,3.944033 c 0.579542,0.150964 1.178536,0.270258 1.786804,0.352704 z M 14.86828,36.07236 c -3.55681,-0.482093 -6.0525112,-3.763022 -5.5726349,-7.320131 0.4822838,-3.558223 3.7619089,-6.054921 7.3201319,-5.572636 3.558221,0.482284 6.05492,3.761909 5.572635,7.320132 -0.482284,3.558222 -3.761909,6.05492 -7.320132,5.572635 z"
       style="color:#000000;fill:url(#linearGradient2452);fill-opacity:1;fill-rule:nonzero;stroke:#000000;stroke-width:0;stroke-linecap:round;stroke-linejoin:round;stroke-miterlimit:4;stroke-opacity:1;stroke-dasharray:none;stroke-dashoffset:0;marker:none;visibility:visible;display:inline;overflow:visible;enable-background:accumulate" />
    <path
       sodipodi:open="true"
       sodipodi:end="6.2825619"
       sodipodi:start="0"
       transform="matrix(-0.5850762,-0.7190858,0.7220906,-0.5808773,15.335893,58.490876)"
       d="M 36,20 C 36,26.627417 30.627417,32 24,32 17.372583,32 12,26.627417 12,20 12,13.372583 17.372583,8 24,8 c 6.624496,0 11.995868,5.368025 11.999998,11.992519"
       sodipodi:ry="12"
       sodipodi:rx="12"
       sodipodi:cy="20"
       sodipodi:cx="24"
       id="path4316"
       style="opacity:0.41423944;color:#000000;fill:none;stroke:#000000;stroke-width:0.44666079;stroke-linecap:round;stroke-linejoin:round;stroke-miterlimit:4;stroke-opacity:1;stroke-dasharray:none;stroke-dashoffset:0;marker:none;visibility:visible;display:inline;overflow:visible;enable-background:accumulate"
       sodipodi:type="arc" />
    <path
       id="path3170"
       d="m 13.729759,44.472194 c 0.608493,0.08248 1.195454,0.123984 1.79452,0.132712 l 0.960702,-3.826356 c 1.44357,-0.09455 2.81685,-0.456497 4.07825,-1.060805 l 2.730909,2.84577 c 1.055225,-0.617322 2.032388,-1.361231 2.908336,-2.214044 l -2.01615,-3.389899 c 0.918285,-1.055025 1.654425,-2.279466 2.12983,-3.645788 l 3.922328,0.08956 c 0.151065,-0.579777 0.288989,-1.153648 0.371467,-1.762158 0.08249,-0.608512 0.105219,-1.220101 0.113948,-1.819166 l -3.80465,-0.95776 C 26.824706,27.420686 26.441048,26.044467 25.83674,24.783069 L 28.682509,22.05216 C 28.06519,20.996949 27.321277,20.01977 26.468465,19.143825 l -3.389899,2.016149 c -1.05502,-0.918275 -2.282405,-1.632717 -3.648729,-2.108125 l 0.08956,-3.922328 c -0.579789,-0.151052 -1.153651,-0.288989 -1.762159,-0.371467 -0.608522,-0.08248 -1.2201,-0.105222 -1.819166,-0.113949 l -0.95776,3.804651 c -1.443585,0.09455 -2.81685,0.456498 -4.078249,1.060804 L 8.192859,16.666733 c -1.055225,0.617331 -2.054093,1.358289 -2.93004,2.211102 l 2.037854,3.39284 C 6.382387,23.3257 5.646248,24.550141 5.170843,25.916463 l -3.922327,-0.08956 c -0.151065,0.579768 -0.291931,1.175353 -0.374409,1.783862 -0.081333,0.602789 -0.123755,1.201013 -0.132713,1.79452 l 3.826357,0.960702 c 0.095265,1.442966 0.477962,2.82052 1.082509,4.081191 l -2.892122,2.746731 c 0.616679,1.054184 1.408657,2.017237 2.260396,2.892514 l 3.368193,-2.019091 c 1.054826,0.917651 2.282885,1.633032 3.64873,2.108125 l -0.0925,3.944033 c 0.579542,0.150964 1.178536,0.270258 1.786804,0.352704 z M 14.86828,36.07236 c -3.55681,-0.482093 -6.052511,-3.763023 -5.572636,-7.320132 0.482285,-3.558223 3.76191,-6.05492 7.320133,-5.572635 3.558222,0.482284 6.05492,3.761909 5.572636,7.320132 -0.482285,3.558222 -3.76191,6.05492 -7.320133,5.572635 z"
       style="color:#000000;fill:none;stroke:#000000;stroke-width:0.5;stroke-linecap:round;stroke-linejoin:round;stroke-miterlimit:4;stroke-opacity:1;stroke-dasharray:none;stroke-dashoffset:0;marker:none;visibility:visible;display:inline;overflow:visible;enable-background:accumulate" />
    <path
       id="path3178"
       d="m 16.467953,15.368978 -0.613297,2.475091 c 1.011637,0.0095 1.977652,0.166449 2.91316,0.416166 l 0.04381,-2.584609 c -0.380338,-0.09403 -0.759661,-0.189525 -1.13898,-0.240938 -0.38586,-0.0523 -0.802039,-0.05093 -1.20469,-0.06571 z m -8.3452195,2.212249 c -0.6883084,0.437051 -1.3444534,0.922796 -1.9494081,1.467532 l 1.2923042,2.190347 C 8.1863552,20.525949 8.990422,19.930249 9.8750106,19.421118 L 8.1227335,17.581227 z m 18.1798745,2.475092 -2.21225,1.292304 c 0.298406,0.302163 0.564295,0.631183 0.832332,0.963752 0.874589,-0.249564 1.7588,-0.467318 2.672222,-0.613297 -0.389897,-0.579908 -0.819877,-1.12144 -1.292304,-1.642759 z M 1.8145362,26.539744 c -0.094548,0.38745 -0.210993,0.778352 -0.2628416,1.160883 -0.052618,0.389973 -0.067369,0.776359 -0.087614,1.160884 l 2.4969948,0.6352 c 0.00931,-1.012753 0.16607,-1.976697 0.4161659,-2.91316 l -2.5627052,-0.04381 z m 3.7235887,8.936612 -1.8617944,1.774181 c 0.4385314,0.673725 0.9533734,1.321795 1.511339,1.927505 L 7.3561123,37.863834 C 6.6518343,37.148453 6.0422122,36.352183 5.5381249,35.476356 z"
       style="color:#000000;fill:url(#linearGradient2447);fill-opacity:1;fill-rule:nonzero;stroke:none;stroke-width:0.7922951;marker:none;visibility:visible;display:inline;overflow:visible;enable-background:accumulate" />
    <path
       id="path3214"
       d="m 15.832752,19.486828 c -2.283858,-0.02397 -4.591425,0.71644 -6.5053283,2.256057 -4.3700552,3.519931 -5.0536803,9.883547 -1.5113389,14.237251 0.4362651,0.536191 0.9098054,1.021967 1.4237251,1.445628 0.3111658,-0.958748 0.6885096,-1.882953 1.1170761,-2.78174 -1.2336775,-1.318147 -1.9932146,-3.091334 -1.9932146,-5.037796 0,-4.069525 3.3119406,-7.359563 7.3814666,-7.359563 1.843403,0 3.525711,0.676431 4.818762,1.796084 0.867418,-0.452218 1.770156,-0.863007 2.694126,-1.204691 -1.97134,-2.164478 -4.66827,-3.322297 -7.425274,-3.35123 z"
       style="color:#000000;fill:url(#linearGradient2444);fill-opacity:1;fill-rule:nonzero;stroke:none;stroke-width:0.68880147;marker:none;visibility:visible;display:inline;overflow:visible;enable-background:accumulate" />
  </g>
</svg>
